<?xml version="1.0" encoding="UTF-8" standalone="no"?>
<!-- Created with Inkscape (http://www.inkscape.org/) -->

<svg
   xmlns:dc="http://purl.org/dc/elements/1.1/"
   xmlns:cc="http://creativecommons.org/ns#"
   xmlns:rdf="http://www.w3.org/1999/02/22-rdf-syntax-ns#"
   xmlns:svg="http://www.w3.org/2000/svg"
   xmlns="http://www.w3.org/2000/svg"
   xmlns:sodipodi="http://sodipodi.sourceforge.net/DTD/sodipodi-0.dtd"
   xmlns:inkscape="http://www.inkscape.org/namespaces/inkscape"
   width="462"
   height="206.5"
   id="svg2"
   version="1.1"
   inkscape:version="0.48.3.1 r9886"
   sodipodi:docname="tree_for_raam.svg">
  <defs
     id="defs4" />
  <sodipodi:namedview
     id="base"
     pagecolor="#ffffff"
     bordercolor="#666666"
     borderopacity="1.0"
     inkscape:pageopacity="0.0"
     inkscape:pageshadow="2"
     inkscape:zoom="1.4"
     inkscape:cx="237.18631"
     inkscape:cy="141.71144"
     inkscape:document-units="px"
     inkscape:current-layer="layer1"
     showgrid="true"
     inkscape:snap-to-guides="false"
     inkscape:window-width="1280"
     inkscape:window-height="750"
     inkscape:window-x="0"
     inkscape:window-y="25"
     inkscape:window-maximized="1"
     inkscape:snap-grids="false"
     inkscape:object-paths="true"
     fit-margin-top="0"
     fit-margin-left="0"
     fit-margin-right="0"
     fit-margin-bottom="0">
    <inkscape:grid
       type="xygrid"
       id="grid3796"
       empspacing="5"
       visible="true"
       enabled="true"
       snapvisiblegridlinesonly="true"
       originx="-39px"
       originy="-578.99999px" />
  </sodipodi:namedview>
  <metadata
     id="metadata7">
    <rdf:RDF>
      <cc:Work
         rdf:about="">
        <dc:format>image/svg+xml</dc:format>
        <dc:type
           rdf:resource="http://purl.org/dc/dcmitype/StillImage" />
        <dc:title />
      </cc:Work>
    </rdf:RDF>
  </metadata>
  <g
     inkscape:label="Layer 1"
     inkscape:groupmode="layer"
     id="layer1"
     transform="translate(-39,-266.86218)">
    <path
       transform="matrix(0.82352939,0,0,0.8235294,-19.999999,272.7698)"
       sodipodi:type="arc"
       style="fill:none;stroke:#000000;stroke-width:2.42857146;stroke-linecap:butt;stroke-linejoin:miter;stroke-miterlimit:4;stroke-opacity:1;stroke-dasharray:none"
       id="path3755-8"
       sodipodi:cx="121.42857"
       sodipodi:cy="193.79076"
       sodipodi:rx="48.57143"
       sodipodi:ry="48.57143"
       d="m 170,193.79076 c 0,26.82526 -21.74617,48.57143 -48.57143,48.57143 -26.825257,0 -48.571427,-21.74617 -48.571427,-48.57143 0,-26.82526 21.74617,-48.57143 48.571427,-48.57143 26.82526,0 48.57143,21.74617 48.57143,48.57143 z" />
    <text
       xml:space="preserve"
       style="font-size:40px;font-style:normal;font-weight:normal;line-height:125%;letter-spacing:0px;word-spacing:0px;fill:#000000;fill-opacity:1;stroke:none;font-family:Sans"
       x="66.328125"
       y="446.94226"
       id="text3898"
       sodipodi:linespacing="125%"><tspan
         sodipodi:role="line"
         id="tspan3900"
         x="66.328125"
         y="446.94226">A</tspan></text>
    <path
       transform="matrix(0.82352939,0,0,0.8235294,100,272.76979)"
       sodipodi:type="arc"
       style="fill:none;stroke:#000000;stroke-width:2.42857146;stroke-linecap:butt;stroke-linejoin:miter;stroke-miterlimit:4;stroke-opacity:1;stroke-dasharray:none"
       id="path3755-8-0"
       sodipodi:cx="121.42857"
       sodipodi:cy="193.79076"
       sodipodi:rx="48.57143"
       sodipodi:ry="48.57143"
       d="m 170,193.79076 c 0,26.82526 -21.74617,48.57143 -48.57143,48.57143 -26.825257,0 -48.571427,-21.74617 -48.571427,-48.57143 0,-26.82526 21.74617,-48.57143 48.571427,-48.57143 26.82526,0 48.57143,21.74617 48.57143,48.57143 z" />
    <text
       xml:space="preserve"
       style="font-size:40px;font-style:normal;font-weight:normal;line-height:125%;letter-spacing:0px;word-spacing:0px;fill:#000000;fill-opacity:1;stroke:none;font-family:Sans"
       x="185.73242"
       y="446.94226"
       id="text3902"
       sodipodi:linespacing="125%"><tspan
         sodipodi:role="line"
         id="tspan3904"
         x="185.73242"
         y="446.94226">B</tspan></text>
    <path
       transform="matrix(0.82352939,0,0,0.8235294,240,272.76979)"
       sodipodi:type="arc"
       style="fill:none;stroke:#000000;stroke-width:2.42857146;stroke-linecap:butt;stroke-linejoin:miter;stroke-miterlimit:4;stroke-opacity:1;stroke-dasharray:none"
       id="path3755-8-5"
       sodipodi:cx="121.42857"
       sodipodi:cy="193.79076"
       sodipodi:rx="48.57143"
       sodipodi:ry="48.57143"
       d="m 170,193.79076 c 0,26.82526 -21.74617,48.57143 -48.57143,48.57143 -26.825257,0 -48.571427,-21.74617 -48.571427,-48.57143 0,-26.82526 21.74617,-48.57143 48.571427,-48.57143 26.82526,0 48.57143,21.74617 48.57143,48.57143 z" />
    <text
       xml:space="preserve"
       style="font-size:40px;font-style:normal;font-weight:normal;line-height:125%;letter-spacing:0px;word-spacing:0px;fill:#000000;fill-opacity:1;stroke:none;font-family:Sans"
       x="325.99609"
       y="446.92273"
       id="text3898-5"
       sodipodi:linespacing="125%"><tspan
         sodipodi:role="line"
         id="tspan3900-2"
         x="325.99609"
         y="446.92273">C</tspan></text>
    <path
       transform="matrix(0.82352939,0,0,0.8235294,360,272.76979)"
       sodipodi:type="arc"
       style="fill:none;stroke:#000000;stroke-width:2.42857146;stroke-linecap:butt;stroke-linejoin:miter;stroke-miterlimit:4;stroke-opacity:1;stroke-dasharray:none"
       id="path3755-8-0-6"
       sodipodi:cx="121.42857"
       sodipodi:cy="193.79076"
       sodipodi:rx="48.57143"
       sodipodi:ry="48.57143"
       d="m 170,193.79076 c 0,26.82526 -21.74617,48.57143 -48.57143,48.57143 -26.825257,0 -48.571427,-21.74617 -48.571427,-48.57143 0,-26.82526 21.74617,-48.57143 48.571427,-48.57143 26.82526,0 48.57143,21.74617 48.57143,48.57143 z" />
    <text
       xml:space="preserve"
       style="font-size:40px;font-style:normal;font-weight:normal;line-height:125%;letter-spacing:0px;word-spacing:0px;fill:#000000;fill-opacity:1;stroke:none;font-family:Sans"
       x="443.81836"
       y="446.94226"
       id="text3902-3"
       sodipodi:linespacing="125%"><tspan
         sodipodi:role="line"
         id="tspan3904-0"
         x="443.81836"
         y="446.94226">D</tspan></text>
    <path
       sodipodi:type="arc"
       style="fill:#000000;fill-opacity:1;fill-rule:evenodd;stroke:#000000;stroke-width:1px;stroke-linecap:butt;stroke-linejoin:miter;stroke-opacity:1"
       id="path13595"
       sodipodi:cx="101"
       sodipodi:cy="201"
       sodipodi:rx="5"
       sodipodi:ry="5"
       d="m 106,201 c 0,2.76142 -2.23858,5 -5,5 -2.761424,0 -5,-2.23858 -5,-5 0,-2.76142 2.238576,-5 5,-5 2.76142,0 5,2.23858 5,5 z"
       transform="translate(39,131.36218)" />
    <path
       sodipodi:type="arc"
       style="fill:#000000;fill-opacity:1;fill-rule:evenodd;stroke:#000000;stroke-width:1px;stroke-linecap:butt;stroke-linejoin:miter;stroke-opacity:1"
       id="path13595-1"
       sodipodi:cx="101"
       sodipodi:cy="201"
       sodipodi:rx="5"
       sodipodi:ry="5"
       d="m 106,201 c 0,2.76142 -2.23858,5 -5,5 -2.761424,0 -5,-2.23858 -5,-5 0,-2.76142 2.238576,-5 5,-5 2.76142,0 5,2.23858 5,5 z"
       transform="translate(299,131.36218)" />
    <path
       sodipodi:type="arc"
       style="fill:#000000;fill-opacity:1;fill-rule:evenodd;stroke:#000000;stroke-width:1px;stroke-linecap:butt;stroke-linejoin:miter;stroke-opacity:1"
       id="path13595-6"
       sodipodi:cx="101"
       sodipodi:cy="201"
       sodipodi:rx="5"
       sodipodi:ry="5"
       d="m 106,201 c 0,2.76142 -2.23858,5 -5,5 -2.761424,0 -5,-2.23858 -5,-5 0,-2.76142 2.238576,-5 5,-5 2.76142,0 5,2.23858 5,5 z"
       transform="translate(169,71.36218)" />
    <path
       style="fill:none;stroke:#000000;stroke-width:2;stroke-linecap:butt;stroke-linejoin:miter;stroke-miterlimit:4;stroke-opacity:1;stroke-dasharray:none"
       d="M 40.722069,241.00095 97.123714,184.15847"
       id="path14130"
       inkscape:connector-curvature="0"
       transform="translate(39,151.36218)" />
    <path
       style="fill:none;stroke:#000000;stroke-width:2;stroke-linecap:butt;stroke-linejoin:miter;stroke-miterlimit:4;stroke-opacity:1;stroke-dasharray:none"
       d="M 161.4241,241.0022 104.87023,184.16588"
       id="path14132"
       inkscape:connector-curvature="0"
       transform="translate(39,151.36218)" />
    <path
       style="fill:none;stroke:#000000;stroke-width:2;stroke-linecap:butt;stroke-linejoin:miter;stroke-miterlimit:4;stroke-opacity:1;stroke-dasharray:none"
       d="m 301.41688,241.00212 56.04759,-56.46659"
       id="path14136"
       inkscape:connector-curvature="0"
       transform="translate(39,151.36218)" />
    <path
       style="fill:none;stroke:#000000;stroke-width:2;stroke-linecap:butt;stroke-linejoin:miter;stroke-miterlimit:4;stroke-opacity:1;stroke-dasharray:none"
       d="M 420.04383,241.0112 364.61317,184.45617"
       id="path14138"
       inkscape:connector-curvature="0"
       transform="translate(39,151.36218)" />
    <path
       style="fill:none;stroke:#000000;stroke-width:2;stroke-linecap:butt;stroke-linejoin:miter;stroke-miterlimit:4;stroke-opacity:1;stroke-dasharray:none"
       d="M 104.17371,177.1362 227.17819,124.22411"
       id="path14142"
       inkscape:connector-curvature="0"
       transform="translate(39,151.36218)" />
    <path
       style="fill:none;stroke:#000000;stroke-width:2;stroke-linecap:butt;stroke-linejoin:miter;stroke-miterlimit:4;stroke-opacity:1;stroke-dasharray:none"
       d="M 356.7525,178.36076 234.59926,124.47064"
       id="path14144"
       inkscape:connector-curvature="0"
       transform="translate(39,151.36218)" />
  </g>
</svg>
