<?xml version="1.0" encoding="UTF-8" standalone="no"?>
<!-- Created with Inkscape (http://www.inkscape.org/) -->

<svg
   xmlns:dc="http://purl.org/dc/elements/1.1/"
   xmlns:cc="http://creativecommons.org/ns#"
   xmlns:rdf="http://www.w3.org/1999/02/22-rdf-syntax-ns#"
   xmlns:svg="http://www.w3.org/2000/svg"
   xmlns="http://www.w3.org/2000/svg"
   xmlns:sodipodi="http://sodipodi.sourceforge.net/DTD/sodipodi-0.dtd"
   xmlns:inkscape="http://www.inkscape.org/namespaces/inkscape"
   width="620"
   height="190"
   id="svg2"
   version="1.1"
   inkscape:version="0.48.4 r9939"
   sodipodi:docname="Rysunek.svg">
  <defs
     id="defs4" />
  <sodipodi:namedview
     id="base"
     pagecolor="#ffffff"
     bordercolor="#666666"
     borderopacity="1.0"
     inkscape:pageopacity="0.0"
     inkscape:pageshadow="2"
     inkscape:zoom="0.98994949"
     inkscape:cx="268.70502"
     inkscape:cy="195.96426"
     inkscape:document-units="px"
     inkscape:current-layer="layer1"
     showgrid="true"
     fit-margin-top="0"
     fit-margin-left="0"
     fit-margin-right="0"
     fit-margin-bottom="0"
     inkscape:window-width="1280"
     inkscape:window-height="976"
     inkscape:window-x="0"
     inkscape:window-y="25"
     inkscape:window-maximized="1">
    <inkscape:grid
       type="xygrid"
       id="grid2985"
       empspacing="5"
       visible="true"
       enabled="true"
       snapvisiblegridlinesonly="true"
       originx="-175.35714px"
       originy="-515px" />
  </sodipodi:namedview>
  <metadata
     id="metadata7">
    <rdf:RDF>
      <cc:Work
         rdf:about="">
        <dc:format>image/svg+xml</dc:format>
        <dc:type
           rdf:resource="http://purl.org/dc/dcmitype/StillImage" />
        <dc:title></dc:title>
      </cc:Work>
    </rdf:RDF>
  </metadata>
  <g
     inkscape:label="Layer 1"
     inkscape:groupmode="layer"
     id="layer1"
     transform="translate(-175.35714,-347.36218)">
    <path
       style="fill:none;stroke:#000000;stroke-width:1px;stroke-linecap:butt;stroke-linejoin:miter;stroke-opacity:1"
       d="m 260,372.36218 0,160 160,0 0,-160 z"
       id="path3005"
       inkscape:connector-curvature="0" />
    <path
       style="fill:none;stroke:#000000;stroke-width:1px;stroke-linecap:butt;stroke-linejoin:miter;stroke-opacity:1"
       d="m 260,372.36218 -80,-20 0,160 80,20"
       id="path3026"
       inkscape:connector-curvature="0" />
    <path
       style="fill:none;stroke:#000000;stroke-width:1px;stroke-linecap:butt;stroke-linejoin:miter;stroke-opacity:1"
       d="m 180,352.36218 160,0 80,20"
       id="path3028"
       inkscape:connector-curvature="0" />
    <path
       style="opacity:0.3;fill:none;stroke:#000000;stroke-width:1px;stroke-linecap:butt;stroke-linejoin:miter;stroke-opacity:1"
       d="m 180,512.36218 160,0 0,-160"
       id="path3030"
       inkscape:connector-curvature="0" />
    <path
       style="opacity:0.3;fill:none;stroke:#000000;stroke-width:1;stroke-linecap:butt;stroke-linejoin:miter;stroke-miterlimit:4;stroke-opacity:1;stroke-dasharray:none"
       d="m 340,512.36218 80,20"
       id="path3032"
       inkscape:connector-curvature="0" />
    <path
       sodipodi:type="arc"
       style="stroke-width:1;stroke-miterlimit:4;stroke-dasharray:none"
       id="path3810"
       sodipodi:cx="135"
       sodipodi:cy="392.36218"
       sodipodi:rx="5"
       sodipodi:ry="5"
       d="m 140,392.36218 c 0,2.76143 -2.23858,5 -5,5 -2.76142,0 -5,-2.23857 -5,-5 0,-2.76142 2.23858,-5 5,-5 2.76142,0 5,2.23858 5,5 z"
       transform="translate(45.357143,-40)" />
    <path
       sodipodi:type="arc"
       style="stroke-width:1;stroke-miterlimit:4;stroke-dasharray:none"
       id="path3810-5"
       sodipodi:cx="135"
       sodipodi:cy="392.36218"
       sodipodi:rx="5"
       sodipodi:ry="5"
       d="m 140,392.36218 c 0,2.76143 -2.23858,5 -5,5 -2.76142,0 -5,-2.23857 -5,-5 0,-2.76142 2.23858,-5 5,-5 2.76142,0 5,2.23858 5,5 z"
       transform="translate(45.35714,120)" />
    <path
       sodipodi:type="arc"
       style="stroke-width:1;stroke-miterlimit:4;stroke-dasharray:none"
       id="path3810-3"
       sodipodi:cx="135"
       sodipodi:cy="392.36218"
       sodipodi:rx="5"
       sodipodi:ry="5"
       d="m 140,392.36218 c 0,2.76143 -2.23858,5 -5,5 -2.76142,0 -5,-2.23857 -5,-5 0,-2.76142 2.23858,-5 5,-5 2.76142,0 5,2.23858 5,5 z"
       transform="translate(125.35714,140)" />
    <path
       sodipodi:type="arc"
       style="stroke-width:1;stroke-miterlimit:4;stroke-dasharray:none"
       id="path3810-1"
       sodipodi:cx="135"
       sodipodi:cy="392.36218"
       sodipodi:rx="5"
       sodipodi:ry="5"
       d="m 140,392.36218 c 0,2.76143 -2.23858,5 -5,5 -2.76142,0 -5,-2.23857 -5,-5 0,-2.76142 2.23858,-5 5,-5 2.76142,0 5,2.23858 5,5 z"
       transform="translate(125.35714,-20)" />
    <path
       sodipodi:type="arc"
       style="stroke-width:1;stroke-miterlimit:4;stroke-dasharray:none"
       id="path3810-6"
       sodipodi:cx="135"
       sodipodi:cy="392.36218"
       sodipodi:rx="5"
       sodipodi:ry="5"
       d="m 140,392.36218 c 0,2.76143 -2.23858,5 -5,5 -2.76142,0 -5,-2.23857 -5,-5 0,-2.76142 2.23858,-5 5,-5 2.76142,0 5,2.23858 5,5 z"
       transform="translate(205.35714,-40)" />
    <path
       sodipodi:type="arc"
       style="stroke-width:1;stroke-miterlimit:4;stroke-dasharray:none"
       id="path3810-4"
       sodipodi:cx="135"
       sodipodi:cy="392.36218"
       sodipodi:rx="5"
       sodipodi:ry="5"
       d="m 140,392.36218 c 0,2.76143 -2.23858,5 -5,5 -2.76142,0 -5,-2.23857 -5,-5 0,-2.76142 2.23858,-5 5,-5 2.76142,0 5,2.23858 5,5 z"
       transform="translate(285.35714,-20)" />
    <path
       sodipodi:type="arc"
       style="stroke-width:1;stroke-miterlimit:4;stroke-dasharray:none"
       id="path3810-0"
       sodipodi:cx="135"
       sodipodi:cy="392.36218"
       sodipodi:rx="5"
       sodipodi:ry="5"
       d="m 140,392.36218 c 0,2.76143 -2.23858,5 -5,5 -2.76142,0 -5,-2.23857 -5,-5 0,-2.76142 2.23858,-5 5,-5 2.76142,0 5,2.23858 5,5 z"
       transform="translate(285.35714,140)" />
    <path
       sodipodi:type="arc"
       style="opacity:0.3;stroke-width:1;stroke-miterlimit:4;stroke-dasharray:none"
       id="path3810-48"
       sodipodi:cx="135"
       sodipodi:cy="392.36218"
       sodipodi:rx="5"
       sodipodi:ry="5"
       d="m 140,392.36218 c 0,2.76143 -2.23858,5 -5,5 -2.76142,0 -5,-2.23857 -5,-5 0,-2.76142 2.23858,-5 5,-5 2.76142,0 5,2.23858 5,5 z"
       transform="translate(205.35714,120)" />
    <path
       style="fill:none;stroke:#000000;stroke-width:1px;stroke-linecap:butt;stroke-linejoin:miter;stroke-opacity:1"
       d="m 630,372.36218 0,160 160,0 0,-160 z"
       id="path3005-9"
       inkscape:connector-curvature="0" />
    <path
       style="fill:none;stroke:#000000;stroke-width:1px;stroke-linecap:butt;stroke-linejoin:miter;stroke-opacity:1"
       d="m 630,372.36218 -80,-20 0,160 80,20"
       id="path3026-9"
       inkscape:connector-curvature="0" />
    <path
       style="fill:none;stroke:#000000;stroke-width:1px;stroke-linecap:butt;stroke-linejoin:miter;stroke-opacity:1"
       d="m 550,352.36218 160,0 80,20"
       id="path3028-5"
       inkscape:connector-curvature="0" />
    <path
       style="opacity:0.3;fill:none;stroke:#000000;stroke-width:1px;stroke-linecap:butt;stroke-linejoin:miter;stroke-opacity:1"
       d="m 550,512.36218 160,0 0,-160"
       id="path3030-4"
       inkscape:connector-curvature="0" />
    <path
       style="opacity:0.3;fill:none;stroke:#000000;stroke-width:1;stroke-linecap:butt;stroke-linejoin:miter;stroke-miterlimit:4;stroke-opacity:1;stroke-dasharray:none"
       d="m 710,512.36218 80,20"
       id="path3032-7"
       inkscape:connector-curvature="0" />
    <path
       sodipodi:type="arc"
       style="stroke-width:1;stroke-miterlimit:4;stroke-dasharray:none"
       id="path3810-37"
       sodipodi:cx="135"
       sodipodi:cy="392.36218"
       sodipodi:rx="5"
       sodipodi:ry="5"
       d="m 140,392.36218 c 0,2.76143 -2.23858,5 -5,5 -2.76142,0 -5,-2.23857 -5,-5 0,-2.76142 2.23858,-5 5,-5 2.76142,0 5,2.23858 5,5 z"
       transform="translate(415.35714,-40)" />
    <path
       sodipodi:type="arc"
       style="stroke-width:1;stroke-miterlimit:4;stroke-dasharray:none"
       id="path3810-5-5"
       sodipodi:cx="135"
       sodipodi:cy="392.36218"
       sodipodi:rx="5"
       sodipodi:ry="5"
       d="m 140,392.36218 c 0,2.76143 -2.23858,5 -5,5 -2.76142,0 -5,-2.23857 -5,-5 0,-2.76142 2.23858,-5 5,-5 2.76142,0 5,2.23858 5,5 z"
       transform="translate(415.35714,120)" />
    <path
       sodipodi:type="arc"
       style="stroke-width:1;stroke-miterlimit:4;stroke-dasharray:none"
       id="path3810-3-0"
       sodipodi:cx="135"
       sodipodi:cy="392.36218"
       sodipodi:rx="5"
       sodipodi:ry="5"
       d="m 140,392.36218 c 0,2.76143 -2.23858,5 -5,5 -2.76142,0 -5,-2.23857 -5,-5 0,-2.76142 2.23858,-5 5,-5 2.76142,0 5,2.23858 5,5 z"
       transform="translate(495.35714,140)" />
    <path
       sodipodi:type="arc"
       style="stroke-width:1;stroke-miterlimit:4;stroke-dasharray:none"
       id="path3810-1-3"
       sodipodi:cx="135"
       sodipodi:cy="392.36218"
       sodipodi:rx="5"
       sodipodi:ry="5"
       d="m 140,392.36218 c 0,2.76143 -2.23858,5 -5,5 -2.76142,0 -5,-2.23857 -5,-5 0,-2.76142 2.23858,-5 5,-5 2.76142,0 5,2.23858 5,5 z"
       transform="translate(495.35714,-20)" />
    <path
       sodipodi:type="arc"
       style="stroke-width:1;stroke-miterlimit:4;stroke-dasharray:none"
       id="path3810-6-0"
       sodipodi:cx="135"
       sodipodi:cy="392.36218"
       sodipodi:rx="5"
       sodipodi:ry="5"
       d="m 140,392.36218 c 0,2.76143 -2.23858,5 -5,5 -2.76142,0 -5,-2.23857 -5,-5 0,-2.76142 2.23858,-5 5,-5 2.76142,0 5,2.23858 5,5 z"
       transform="translate(575.35714,-40)" />
    <path
       sodipodi:type="arc"
       style="stroke-width:1;stroke-miterlimit:4;stroke-dasharray:none"
       id="path3810-4-3"
       sodipodi:cx="135"
       sodipodi:cy="392.36218"
       sodipodi:rx="5"
       sodipodi:ry="5"
       d="m 140,392.36218 c 0,2.76143 -2.23858,5 -5,5 -2.76142,0 -5,-2.23857 -5,-5 0,-2.76142 2.23858,-5 5,-5 2.76142,0 5,2.23858 5,5 z"
       transform="translate(655.35714,-20)" />
    <path
       sodipodi:type="arc"
       style="stroke-width:1;stroke-miterlimit:4;stroke-dasharray:none"
       id="path3810-0-4"
       sodipodi:cx="135"
       sodipodi:cy="392.36218"
       sodipodi:rx="5"
       sodipodi:ry="5"
       d="m 140,392.36218 c 0,2.76143 -2.23858,5 -5,5 -2.76142,0 -5,-2.23857 -5,-5 0,-2.76142 2.23858,-5 5,-5 2.76142,0 5,2.23858 5,5 z"
       transform="translate(655.35714,140)" />
    <path
       sodipodi:type="arc"
       style="opacity:0.3;stroke-width:1;stroke-miterlimit:4;stroke-dasharray:none"
       id="path3810-48-6"
       sodipodi:cx="135"
       sodipodi:cy="392.36218"
       sodipodi:rx="5"
       sodipodi:ry="5"
       d="m 140,392.36218 c 0,2.76143 -2.23858,5 -5,5 -2.76142,0 -5,-2.23857 -5,-5 0,-2.76142 2.23858,-5 5,-5 2.76142,0 5,2.23858 5,5 z"
       transform="translate(575.35714,120)" />
    <path
       sodipodi:type="arc"
       style="opacity:0.3;stroke-width:1;stroke-miterlimit:4;stroke-dasharray:none"
       id="path3810-37-9"
       sodipodi:cx="135"
       sodipodi:cy="392.36218"
       sodipodi:rx="5"
       sodipodi:ry="5"
       d="m 140,392.36218 c 0,2.76143 -2.23858,5 -5,5 -2.76142,0 -5,-2.23857 -5,-5 0,-2.76142 2.23858,-5 5,-5 2.76142,0 5,2.23858 5,5 z"
       transform="translate(535.35714,50)" />
    <path
       style="opacity:0.3;fill:none;stroke:#000000;stroke-width:1px;stroke-linecap:butt;stroke-linejoin:miter;stroke-opacity:1"
       d="m 550,352.36218 240,180"
       id="path3981"
       inkscape:connector-curvature="0" />
    <path
       style="opacity:0.3;fill:none;stroke:#000000;stroke-width:1px;stroke-linecap:butt;stroke-linejoin:miter;stroke-opacity:1"
       d="m 710,352.36218 -80,180"
       id="path3983"
       inkscape:connector-curvature="0" />
    <path
       style="opacity:0.3;fill:none;stroke:#000000;stroke-width:1px;stroke-linecap:butt;stroke-linejoin:miter;stroke-opacity:1"
       d="m 630,372.36218 80,140"
       id="path3985"
       inkscape:connector-curvature="0" />
    <path
       style="opacity:0.3;fill:none;stroke:#000000;stroke-width:1px;stroke-linecap:butt;stroke-linejoin:miter;stroke-opacity:1"
       d="m 790,372.36218 -240,140"
       id="path3987"
       inkscape:connector-curvature="0" />
  </g>
</svg>
