<?xml version="1.0" standalone="no"?>
<!DOCTYPE svg PUBLIC "-//W3C//DTD SVG 1.1//EN"
"http://www.w3.org/Graphics/SVG/1.1/DTD/svg11.dtd">
<!-- Creator: fig2dev Version 3.2 Patchlevel 5d -->
<!-- CreationDate: Thu May 23 20:07:13 2013 -->
<!-- Magnification: 10.000 -->
<svg	xmlns="http://www.w3.org/2000/svg"
	xmlns:xlink="http://www.w3.org/1999/xlink"
	width="65.9in" height="51.1in"
	viewBox="20810 16830 79130 61270">
<g style="stroke-width:.025in; fill:none">
<!-- Line -->
<polyline points="51350,18780
55100,18780
" style="stroke:#000000;stroke-width:70;
stroke-linejoin:miter; stroke-linecap:butt;
"/>
<!-- Line -->
<polyline points="25120,24430
25760,25390
26410,18750
27050,25000
27690,24550
28330,25370
28980,26040
29620,26390
30260,26730
30900,27910
31550,28230
32190,29490
32830,27110
33470,27390
34120,27300
34760,26240
35400,26720
36040,27480
36690,28490
37330,28590
37970,28550
38610,28940
39260,30320
39900,30460
40540,29510
41180,30090
41820,30670
42470,29950
43110,30870
43750,30670
44390,31010
45040,31100
45680,31200
46320,31130
46960,31250
47610,31130
48250,30760
48890,30710
49530,31600
50180,30560
50820,29450
51460,28440
52100,27170
52750,28200
53390,28520
54030,26750
54670,28090
55320,28940
55960,28900
56600,29550
" style="stroke:#000000;stroke-width:70;
stroke-linejoin:miter; stroke-linecap:butt;
"/>
<!-- Line -->
<polyline points="93620,18780
97370,18780
" style="stroke:#000000;stroke-width:70;
stroke-linejoin:miter; stroke-linecap:butt;
"/>
<!-- Line -->
<polyline points="67390,30720
68030,30720
68680,19630
69320,30720
69960,30720
70600,19630
71250,30720
71890,19630
72530,19630
73170,19630
73820,19630
74460,19630
75100,19630
75740,19630
76390,19630
77030,19630
77670,19630
78310,19630
78960,19630
79600,30720
80240,30720
80880,19630
81530,30720
82170,30720
82810,19630
83450,19630
84090,30720
84740,19630
85380,19630
86020,30720
86660,30720
87310,19630
87950,19630
88590,19630
89230,19630
89880,19630
90520,30720
91160,30720
91800,30720
92450,30720
93090,30720
93730,30720
94370,30720
95020,30720
95660,30720
96300,30720
96940,19630
97590,30720
98230,19630
98870,30720
" style="stroke:#000000;stroke-width:70;
stroke-linejoin:miter; stroke-linecap:butt;
"/>
<!-- Line -->
<polyline points="51350,40350
55100,40350
" style="stroke:#000000;stroke-width:70;
stroke-linejoin:miter; stroke-linecap:butt;
"/>
<!-- Line -->
<polyline points="25120,53830
25760,53520
26410,52830
27050,45070
27690,51590
28330,52150
28980,51530
29620,51590
30260,49110
30900,50410
31550,42020
32190,42020
32830,42020
33470,42020
34120,42020
34760,48920
35400,42020
36040,46560
36690,42020
37330,52210
37970,52830
38610,49600
39260,51280
39900,52770
40540,42020
41180,46370
41820,52580
42470,46990
43110,48300
43750,52520
44390,51280
45040,49290
45680,42020
46320,49790
46960,42020
47610,42020
48250,42020
48890,42020
49530,42020
50180,42020
50820,42020
51460,42020
52100,42020
52750,42020
53390,42020
54030,42020
54670,42020
55320,42020
55960,42020
56600,42020
" style="stroke:#000000;stroke-width:70;
stroke-linejoin:miter; stroke-linecap:butt;
"/>
<!-- Line -->
<polyline points="93620,40350
97370,40350
" style="stroke:#000000;stroke-width:70;
stroke-linejoin:miter; stroke-linecap:butt;
"/>
<!-- Line -->
<polyline points="67390,41460
68030,41460
68680,42240
69320,41460
69960,41460
70600,42240
71250,41460
71890,41850
72530,42370
73170,47460
73820,46680
74460,47200
75100,44850
75740,45770
76390,46290
77030,44980
77670,45510
78310,48510
78960,48120
79600,41460
80240,41460
80880,42900
81530,41460
82170,41460
82810,44460
83450,44460
84090,41460
84740,46550
85380,43940
86020,41460
86660,41460
87310,47070
87950,44070
88590,45510
89230,44460
89880,43940
90520,41460
91160,41460
91800,41460
92450,41460
93090,41460
93730,41460
94370,41460
95020,41460
95660,41460
96300,41460
96940,41460
97590,41460
98230,41460
98870,41460
" style="stroke:#000000;stroke-width:70;
stroke-linejoin:miter; stroke-linecap:butt;
"/>
<!-- Line -->
<polyline points="51350,61930
55100,61930
" style="stroke:#000000;stroke-width:70;
stroke-linejoin:miter; stroke-linecap:butt;
"/>
<!-- Line -->
<polyline points="25120,75580
25760,75270
26410,74780
27050,68380
27690,73780
28330,74030
28980,73600
29620,73780
30260,71110
30900,72790
31550,63600
32190,67140
32830,63600
33470,63600
34120,63660
34760,71420
35400,67760
36040,70550
36690,63600
37330,74900
37970,75150
38610,70120
39260,73970
39900,74840
40540,74340
41180,74340
41820,74840
42470,67950
43110,69500
43750,74530
44390,72420
45040,69620
45680,63600
46320,72110
46960,63600
47610,63600
48250,63600
48890,63600
49530,63600
50180,63600
50820,63600
51460,63600
52100,63600
52750,63600
53390,63600
54030,63600
54670,63600
55320,63600
55960,63600
56600,63600
" style="stroke:#000000;stroke-width:70;
stroke-linejoin:miter; stroke-linecap:butt;
"/>
<!-- Line -->
<polyline points="93620,61930
97370,61930
" style="stroke:#000000;stroke-width:70;
stroke-linejoin:miter; stroke-linecap:butt;
"/>
<!-- Line -->
<polyline points="67390,75170
68030,75170
68680,69430
69320,75170
69960,75170
70600,69040
71250,75170
71890,68250
72530,68650
73170,63430
73820,63170
74460,63170
75100,65780
75740,65120
76390,63560
77030,66040
77670,66040
78310,64210
78960,64860
79600,75170
80240,75170
80880,66430
81530,75170
82170,75170
82810,65260
83450,66820
84090,75170
84740,63820
85380,66430
86020,75170
86660,75170
87310,65120
87950,65650
88590,66040
89230,65780
89880,66040
90520,75170
91160,75170
91800,75170
92450,75170
93090,75170
93730,75170
94370,75170
95020,75170
95660,75170
96300,75170
96940,68390
97590,75170
98230,70340
98870,75170
" style="stroke:#000000;stroke-width:70;
stroke-linejoin:miter; stroke-linecap:butt;
"/>
<!-- Line -->
<polyline points="24480,32720
25530,32720
" style="stroke:#000000;stroke-width:70;
stroke-linejoin:miter; stroke-linecap:butt;
"/>
<!-- Line -->
<polyline points="56600,32720
55550,32720
" style="stroke:#000000;stroke-width:70;
stroke-linejoin:miter; stroke-linecap:butt;
"/>
<!-- Line -->
<polyline points="24480,30050
25530,30050
" style="stroke:#000000;stroke-width:70;
stroke-linejoin:miter; stroke-linecap:butt;
"/>
<!-- Line -->
<polyline points="56600,30050
55550,30050
" style="stroke:#000000;stroke-width:70;
stroke-linejoin:miter; stroke-linecap:butt;
"/>
<!-- Line -->
<polyline points="24480,27380
25530,27380
" style="stroke:#000000;stroke-width:70;
stroke-linejoin:miter; stroke-linecap:butt;
"/>
<!-- Line -->
<polyline points="56600,27380
55550,27380
" style="stroke:#000000;stroke-width:70;
stroke-linejoin:miter; stroke-linecap:butt;
"/>
<!-- Line -->
<polyline points="24480,24700
25530,24700
" style="stroke:#000000;stroke-width:70;
stroke-linejoin:miter; stroke-linecap:butt;
"/>
<!-- Line -->
<polyline points="56600,24700
55550,24700
" style="stroke:#000000;stroke-width:70;
stroke-linejoin:miter; stroke-linecap:butt;
"/>
<!-- Line -->
<polyline points="24480,22030
25530,22030
" style="stroke:#000000;stroke-width:70;
stroke-linejoin:miter; stroke-linecap:butt;
"/>
<!-- Line -->
<polyline points="56600,22030
55550,22030
" style="stroke:#000000;stroke-width:70;
stroke-linejoin:miter; stroke-linecap:butt;
"/>
<!-- Line -->
<polyline points="24480,19360
25530,19360
" style="stroke:#000000;stroke-width:70;
stroke-linejoin:miter; stroke-linecap:butt;
"/>
<!-- Line -->
<polyline points="56600,19360
55550,19360
" style="stroke:#000000;stroke-width:70;
stroke-linejoin:miter; stroke-linecap:butt;
"/>
<!-- Line -->
<polyline points="24480,32940
24480,31890
" style="stroke:#000000;stroke-width:70;
stroke-linejoin:miter; stroke-linecap:butt;
"/>
<!-- Line -->
<polyline points="24480,17410
24480,18460
" style="stroke:#000000;stroke-width:70;
stroke-linejoin:miter; stroke-linecap:butt;
"/>
<!-- Line -->
<polyline points="30900,32940
30900,31890
" style="stroke:#000000;stroke-width:70;
stroke-linejoin:miter; stroke-linecap:butt;
"/>
<!-- Line -->
<polyline points="30900,17410
30900,18460
" style="stroke:#000000;stroke-width:70;
stroke-linejoin:miter; stroke-linecap:butt;
"/>
<!-- Line -->
<polyline points="37330,32940
37330,31890
" style="stroke:#000000;stroke-width:70;
stroke-linejoin:miter; stroke-linecap:butt;
"/>
<!-- Line -->
<polyline points="37330,17410
37330,18460
" style="stroke:#000000;stroke-width:70;
stroke-linejoin:miter; stroke-linecap:butt;
"/>
<!-- Line -->
<polyline points="43750,32940
43750,31890
" style="stroke:#000000;stroke-width:70;
stroke-linejoin:miter; stroke-linecap:butt;
"/>
<!-- Line -->
<polyline points="43750,17410
43750,18460
" style="stroke:#000000;stroke-width:70;
stroke-linejoin:miter; stroke-linecap:butt;
"/>
<!-- Line -->
<polyline points="50180,32940
50180,31890
" style="stroke:#000000;stroke-width:70;
stroke-linejoin:miter; stroke-linecap:butt;
"/>
<!-- Line -->
<polyline points="50180,17410
50180,18460
" style="stroke:#000000;stroke-width:70;
stroke-linejoin:miter; stroke-linecap:butt;
"/>
<!-- Line -->
<polyline points="56600,32940
56600,31890
" style="stroke:#000000;stroke-width:70;
stroke-linejoin:miter; stroke-linecap:butt;
"/>
<!-- Line -->
<polyline points="56600,17410
56600,18460
" style="stroke:#000000;stroke-width:70;
stroke-linejoin:miter; stroke-linecap:butt;
"/>
<!-- Line -->
<polyline points="24480,17410
24480,32940
56600,32940
56600,17410
24480,17410
" style="stroke:#000000;stroke-width:70;
stroke-linejoin:miter; stroke-linecap:butt;
"/>
<!-- Line -->
<!--  End plot #1  -->
<polyline points="66750,32940
67800,32940
" style="stroke:#000000;stroke-width:70;
stroke-linejoin:miter; stroke-linecap:butt;
"/>
<!-- Line -->
<polyline points="98870,32940
97820,32940
" style="stroke:#000000;stroke-width:70;
stroke-linejoin:miter; stroke-linecap:butt;
"/>
<!-- Line -->
<polyline points="66750,30720
67800,30720
" style="stroke:#000000;stroke-width:70;
stroke-linejoin:miter; stroke-linecap:butt;
"/>
<!-- Line -->
<polyline points="98870,30720
97820,30720
" style="stroke:#000000;stroke-width:70;
stroke-linejoin:miter; stroke-linecap:butt;
"/>
<!-- Line -->
<polyline points="66750,28500
67800,28500
" style="stroke:#000000;stroke-width:70;
stroke-linejoin:miter; stroke-linecap:butt;
"/>
<!-- Line -->
<polyline points="98870,28500
97820,28500
" style="stroke:#000000;stroke-width:70;
stroke-linejoin:miter; stroke-linecap:butt;
"/>
<!-- Line -->
<polyline points="66750,26280
67800,26280
" style="stroke:#000000;stroke-width:70;
stroke-linejoin:miter; stroke-linecap:butt;
"/>
<!-- Line -->
<polyline points="98870,26280
97820,26280
" style="stroke:#000000;stroke-width:70;
stroke-linejoin:miter; stroke-linecap:butt;
"/>
<!-- Line -->
<polyline points="66750,24070
67800,24070
" style="stroke:#000000;stroke-width:70;
stroke-linejoin:miter; stroke-linecap:butt;
"/>
<!-- Line -->
<polyline points="98870,24070
97820,24070
" style="stroke:#000000;stroke-width:70;
stroke-linejoin:miter; stroke-linecap:butt;
"/>
<!-- Line -->
<polyline points="66750,21850
67800,21850
" style="stroke:#000000;stroke-width:70;
stroke-linejoin:miter; stroke-linecap:butt;
"/>
<!-- Line -->
<polyline points="98870,21850
97820,21850
" style="stroke:#000000;stroke-width:70;
stroke-linejoin:miter; stroke-linecap:butt;
"/>
<!-- Line -->
<polyline points="66750,19630
67800,19630
" style="stroke:#000000;stroke-width:70;
stroke-linejoin:miter; stroke-linecap:butt;
"/>
<!-- Line -->
<polyline points="98870,19630
97820,19630
" style="stroke:#000000;stroke-width:70;
stroke-linejoin:miter; stroke-linecap:butt;
"/>
<!-- Line -->
<polyline points="66750,17410
67800,17410
" style="stroke:#000000;stroke-width:70;
stroke-linejoin:miter; stroke-linecap:butt;
"/>
<!-- Line -->
<polyline points="98870,17410
97820,17410
" style="stroke:#000000;stroke-width:70;
stroke-linejoin:miter; stroke-linecap:butt;
"/>
<!-- Line -->
<polyline points="66750,32940
66750,31890
" style="stroke:#000000;stroke-width:70;
stroke-linejoin:miter; stroke-linecap:butt;
"/>
<!-- Line -->
<polyline points="66750,17410
66750,18460
" style="stroke:#000000;stroke-width:70;
stroke-linejoin:miter; stroke-linecap:butt;
"/>
<!-- Line -->
<polyline points="73170,32940
73170,31890
" style="stroke:#000000;stroke-width:70;
stroke-linejoin:miter; stroke-linecap:butt;
"/>
<!-- Line -->
<polyline points="73170,17410
73170,18460
" style="stroke:#000000;stroke-width:70;
stroke-linejoin:miter; stroke-linecap:butt;
"/>
<!-- Line -->
<polyline points="79600,32940
79600,31890
" style="stroke:#000000;stroke-width:70;
stroke-linejoin:miter; stroke-linecap:butt;
"/>
<!-- Line -->
<polyline points="79600,17410
79600,18460
" style="stroke:#000000;stroke-width:70;
stroke-linejoin:miter; stroke-linecap:butt;
"/>
<!-- Line -->
<polyline points="86020,32940
86020,31890
" style="stroke:#000000;stroke-width:70;
stroke-linejoin:miter; stroke-linecap:butt;
"/>
<!-- Line -->
<polyline points="86020,17410
86020,18460
" style="stroke:#000000;stroke-width:70;
stroke-linejoin:miter; stroke-linecap:butt;
"/>
<!-- Line -->
<polyline points="92450,32940
92450,31890
" style="stroke:#000000;stroke-width:70;
stroke-linejoin:miter; stroke-linecap:butt;
"/>
<!-- Line -->
<polyline points="92450,17410
92450,18460
" style="stroke:#000000;stroke-width:70;
stroke-linejoin:miter; stroke-linecap:butt;
"/>
<!-- Line -->
<polyline points="98870,32940
98870,31890
" style="stroke:#000000;stroke-width:70;
stroke-linejoin:miter; stroke-linecap:butt;
"/>
<!-- Line -->
<polyline points="98870,17410
98870,18460
" style="stroke:#000000;stroke-width:70;
stroke-linejoin:miter; stroke-linecap:butt;
"/>
<!-- Line -->
<polyline points="66750,17410
66750,32940
98870,32940
98870,17410
66750,17410
" style="stroke:#000000;stroke-width:70;
stroke-linejoin:miter; stroke-linecap:butt;
"/>
<!-- Line -->
<!--  End plot #1  -->
<polyline points="24480,54510
25530,54510
" style="stroke:#000000;stroke-width:70;
stroke-linejoin:miter; stroke-linecap:butt;
"/>
<!-- Line -->
<polyline points="56600,54510
55550,54510
" style="stroke:#000000;stroke-width:70;
stroke-linejoin:miter; stroke-linecap:butt;
"/>
<!-- Line -->
<polyline points="24480,51400
25530,51400
" style="stroke:#000000;stroke-width:70;
stroke-linejoin:miter; stroke-linecap:butt;
"/>
<!-- Line -->
<polyline points="56600,51400
55550,51400
" style="stroke:#000000;stroke-width:70;
stroke-linejoin:miter; stroke-linecap:butt;
"/>
<!-- Line -->
<polyline points="24480,48300
25530,48300
" style="stroke:#000000;stroke-width:70;
stroke-linejoin:miter; stroke-linecap:butt;
"/>
<!-- Line -->
<polyline points="56600,48300
55550,48300
" style="stroke:#000000;stroke-width:70;
stroke-linejoin:miter; stroke-linecap:butt;
"/>
<!-- Line -->
<polyline points="24480,45190
25530,45190
" style="stroke:#000000;stroke-width:70;
stroke-linejoin:miter; stroke-linecap:butt;
"/>
<!-- Line -->
<polyline points="56600,45190
55550,45190
" style="stroke:#000000;stroke-width:70;
stroke-linejoin:miter; stroke-linecap:butt;
"/>
<!-- Line -->
<polyline points="24480,42090
25530,42090
" style="stroke:#000000;stroke-width:70;
stroke-linejoin:miter; stroke-linecap:butt;
"/>
<!-- Line -->
<polyline points="56600,42090
55550,42090
" style="stroke:#000000;stroke-width:70;
stroke-linejoin:miter; stroke-linecap:butt;
"/>
<!-- Line -->
<polyline points="24480,38980
25530,38980
" style="stroke:#000000;stroke-width:70;
stroke-linejoin:miter; stroke-linecap:butt;
"/>
<!-- Line -->
<polyline points="56600,38980
55550,38980
" style="stroke:#000000;stroke-width:70;
stroke-linejoin:miter; stroke-linecap:butt;
"/>
<!-- Line -->
<polyline points="24480,54510
24480,53460
" style="stroke:#000000;stroke-width:70;
stroke-linejoin:miter; stroke-linecap:butt;
"/>
<!-- Line -->
<polyline points="24480,38980
24480,40030
" style="stroke:#000000;stroke-width:70;
stroke-linejoin:miter; stroke-linecap:butt;
"/>
<!-- Line -->
<polyline points="30900,54510
30900,53460
" style="stroke:#000000;stroke-width:70;
stroke-linejoin:miter; stroke-linecap:butt;
"/>
<!-- Line -->
<polyline points="30900,38980
30900,40030
" style="stroke:#000000;stroke-width:70;
stroke-linejoin:miter; stroke-linecap:butt;
"/>
<!-- Line -->
<polyline points="37330,54510
37330,53460
" style="stroke:#000000;stroke-width:70;
stroke-linejoin:miter; stroke-linecap:butt;
"/>
<!-- Line -->
<polyline points="37330,38980
37330,40030
" style="stroke:#000000;stroke-width:70;
stroke-linejoin:miter; stroke-linecap:butt;
"/>
<!-- Line -->
<polyline points="43750,54510
43750,53460
" style="stroke:#000000;stroke-width:70;
stroke-linejoin:miter; stroke-linecap:butt;
"/>
<!-- Line -->
<polyline points="43750,38980
43750,40030
" style="stroke:#000000;stroke-width:70;
stroke-linejoin:miter; stroke-linecap:butt;
"/>
<!-- Line -->
<polyline points="50180,54510
50180,53460
" style="stroke:#000000;stroke-width:70;
stroke-linejoin:miter; stroke-linecap:butt;
"/>
<!-- Line -->
<polyline points="50180,38980
50180,40030
" style="stroke:#000000;stroke-width:70;
stroke-linejoin:miter; stroke-linecap:butt;
"/>
<!-- Line -->
<polyline points="56600,54510
56600,53460
" style="stroke:#000000;stroke-width:70;
stroke-linejoin:miter; stroke-linecap:butt;
"/>
<!-- Line -->
<polyline points="56600,38980
56600,40030
" style="stroke:#000000;stroke-width:70;
stroke-linejoin:miter; stroke-linecap:butt;
"/>
<!-- Line -->
<polyline points="24480,38980
24480,54510
56600,54510
56600,38980
24480,38980
" style="stroke:#000000;stroke-width:70;
stroke-linejoin:miter; stroke-linecap:butt;
"/>
<!-- Line -->
<!--  End plot #1  -->
<polyline points="66750,54510
67800,54510
" style="stroke:#000000;stroke-width:70;
stroke-linejoin:miter; stroke-linecap:butt;
"/>
<!-- Line -->
<polyline points="98870,54510
97820,54510
" style="stroke:#000000;stroke-width:70;
stroke-linejoin:miter; stroke-linecap:butt;
"/>
<!-- Line -->
<polyline points="66750,51900
67800,51900
" style="stroke:#000000;stroke-width:70;
stroke-linejoin:miter; stroke-linecap:butt;
"/>
<!-- Line -->
<polyline points="98870,51900
97820,51900
" style="stroke:#000000;stroke-width:70;
stroke-linejoin:miter; stroke-linecap:butt;
"/>
<!-- Line -->
<polyline points="66750,49290
67800,49290
" style="stroke:#000000;stroke-width:70;
stroke-linejoin:miter; stroke-linecap:butt;
"/>
<!-- Line -->
<polyline points="98870,49290
97820,49290
" style="stroke:#000000;stroke-width:70;
stroke-linejoin:miter; stroke-linecap:butt;
"/>
<!-- Line -->
<polyline points="66750,46680
67800,46680
" style="stroke:#000000;stroke-width:70;
stroke-linejoin:miter; stroke-linecap:butt;
"/>
<!-- Line -->
<polyline points="98870,46680
97820,46680
" style="stroke:#000000;stroke-width:70;
stroke-linejoin:miter; stroke-linecap:butt;
"/>
<!-- Line -->
<polyline points="66750,44070
67800,44070
" style="stroke:#000000;stroke-width:70;
stroke-linejoin:miter; stroke-linecap:butt;
"/>
<!-- Line -->
<polyline points="98870,44070
97820,44070
" style="stroke:#000000;stroke-width:70;
stroke-linejoin:miter; stroke-linecap:butt;
"/>
<!-- Line -->
<polyline points="66750,41460
67800,41460
" style="stroke:#000000;stroke-width:70;
stroke-linejoin:miter; stroke-linecap:butt;
"/>
<!-- Line -->
<polyline points="98870,41460
97820,41460
" style="stroke:#000000;stroke-width:70;
stroke-linejoin:miter; stroke-linecap:butt;
"/>
<!-- Line -->
<polyline points="66750,54510
66750,53460
" style="stroke:#000000;stroke-width:70;
stroke-linejoin:miter; stroke-linecap:butt;
"/>
<!-- Line -->
<polyline points="66750,38980
66750,40030
" style="stroke:#000000;stroke-width:70;
stroke-linejoin:miter; stroke-linecap:butt;
"/>
<!-- Line -->
<polyline points="73170,54510
73170,53460
" style="stroke:#000000;stroke-width:70;
stroke-linejoin:miter; stroke-linecap:butt;
"/>
<!-- Line -->
<polyline points="73170,38980
73170,40030
" style="stroke:#000000;stroke-width:70;
stroke-linejoin:miter; stroke-linecap:butt;
"/>
<!-- Line -->
<polyline points="79600,54510
79600,53460
" style="stroke:#000000;stroke-width:70;
stroke-linejoin:miter; stroke-linecap:butt;
"/>
<!-- Line -->
<polyline points="79600,38980
79600,40030
" style="stroke:#000000;stroke-width:70;
stroke-linejoin:miter; stroke-linecap:butt;
"/>
<!-- Line -->
<polyline points="86020,54510
86020,53460
" style="stroke:#000000;stroke-width:70;
stroke-linejoin:miter; stroke-linecap:butt;
"/>
<!-- Line -->
<polyline points="86020,38980
86020,40030
" style="stroke:#000000;stroke-width:70;
stroke-linejoin:miter; stroke-linecap:butt;
"/>
<!-- Line -->
<polyline points="92450,54510
92450,53460
" style="stroke:#000000;stroke-width:70;
stroke-linejoin:miter; stroke-linecap:butt;
"/>
<!-- Line -->
<polyline points="92450,38980
92450,40030
" style="stroke:#000000;stroke-width:70;
stroke-linejoin:miter; stroke-linecap:butt;
"/>
<!-- Line -->
<polyline points="98870,54510
98870,53460
" style="stroke:#000000;stroke-width:70;
stroke-linejoin:miter; stroke-linecap:butt;
"/>
<!-- Line -->
<polyline points="98870,38980
98870,40030
" style="stroke:#000000;stroke-width:70;
stroke-linejoin:miter; stroke-linecap:butt;
"/>
<!-- Line -->
<polyline points="66750,38980
66750,54510
98870,54510
98870,38980
66750,38980
" style="stroke:#000000;stroke-width:70;
stroke-linejoin:miter; stroke-linecap:butt;
"/>
<!-- Line -->
<!--  End plot #1  -->
<polyline points="24480,76080
25530,76080
" style="stroke:#000000;stroke-width:70;
stroke-linejoin:miter; stroke-linecap:butt;
"/>
<!-- Line -->
<polyline points="56600,76080
55550,76080
" style="stroke:#000000;stroke-width:70;
stroke-linejoin:miter; stroke-linecap:butt;
"/>
<!-- Line -->
<polyline points="24480,72980
25530,72980
" style="stroke:#000000;stroke-width:70;
stroke-linejoin:miter; stroke-linecap:butt;
"/>
<!-- Line -->
<polyline points="56600,72980
55550,72980
" style="stroke:#000000;stroke-width:70;
stroke-linejoin:miter; stroke-linecap:butt;
"/>
<!-- Line -->
<polyline points="24480,69870
25530,69870
" style="stroke:#000000;stroke-width:70;
stroke-linejoin:miter; stroke-linecap:butt;
"/>
<!-- Line -->
<polyline points="56600,69870
55550,69870
" style="stroke:#000000;stroke-width:70;
stroke-linejoin:miter; stroke-linecap:butt;
"/>
<!-- Line -->
<polyline points="24480,66770
25530,66770
" style="stroke:#000000;stroke-width:70;
stroke-linejoin:miter; stroke-linecap:butt;
"/>
<!-- Line -->
<polyline points="56600,66770
55550,66770
" style="stroke:#000000;stroke-width:70;
stroke-linejoin:miter; stroke-linecap:butt;
"/>
<!-- Line -->
<polyline points="24480,63660
25530,63660
" style="stroke:#000000;stroke-width:70;
stroke-linejoin:miter; stroke-linecap:butt;
"/>
<!-- Line -->
<polyline points="56600,63660
55550,63660
" style="stroke:#000000;stroke-width:70;
stroke-linejoin:miter; stroke-linecap:butt;
"/>
<!-- Line -->
<polyline points="24480,60560
25530,60560
" style="stroke:#000000;stroke-width:70;
stroke-linejoin:miter; stroke-linecap:butt;
"/>
<!-- Line -->
<polyline points="56600,60560
55550,60560
" style="stroke:#000000;stroke-width:70;
stroke-linejoin:miter; stroke-linecap:butt;
"/>
<!-- Line -->
<polyline points="24480,76080
24480,75030
" style="stroke:#000000;stroke-width:70;
stroke-linejoin:miter; stroke-linecap:butt;
"/>
<!-- Line -->
<polyline points="24480,60560
24480,61610
" style="stroke:#000000;stroke-width:70;
stroke-linejoin:miter; stroke-linecap:butt;
"/>
<!-- Line -->
<polyline points="30900,76080
30900,75030
" style="stroke:#000000;stroke-width:70;
stroke-linejoin:miter; stroke-linecap:butt;
"/>
<!-- Line -->
<polyline points="30900,60560
30900,61610
" style="stroke:#000000;stroke-width:70;
stroke-linejoin:miter; stroke-linecap:butt;
"/>
<!-- Line -->
<polyline points="37330,76080
37330,75030
" style="stroke:#000000;stroke-width:70;
stroke-linejoin:miter; stroke-linecap:butt;
"/>
<!-- Line -->
<polyline points="37330,60560
37330,61610
" style="stroke:#000000;stroke-width:70;
stroke-linejoin:miter; stroke-linecap:butt;
"/>
<!-- Line -->
<polyline points="43750,76080
43750,75030
" style="stroke:#000000;stroke-width:70;
stroke-linejoin:miter; stroke-linecap:butt;
"/>
<!-- Line -->
<polyline points="43750,60560
43750,61610
" style="stroke:#000000;stroke-width:70;
stroke-linejoin:miter; stroke-linecap:butt;
"/>
<!-- Line -->
<polyline points="50180,76080
50180,75030
" style="stroke:#000000;stroke-width:70;
stroke-linejoin:miter; stroke-linecap:butt;
"/>
<!-- Line -->
<polyline points="50180,60560
50180,61610
" style="stroke:#000000;stroke-width:70;
stroke-linejoin:miter; stroke-linecap:butt;
"/>
<!-- Line -->
<polyline points="56600,76080
56600,75030
" style="stroke:#000000;stroke-width:70;
stroke-linejoin:miter; stroke-linecap:butt;
"/>
<!-- Line -->
<polyline points="56600,60560
56600,61610
" style="stroke:#000000;stroke-width:70;
stroke-linejoin:miter; stroke-linecap:butt;
"/>
<!-- Line -->
<polyline points="24480,60560
24480,76080
56600,76080
56600,60560
24480,60560
" style="stroke:#000000;stroke-width:70;
stroke-linejoin:miter; stroke-linecap:butt;
"/>
<!-- Line -->
<!--  End plot #1  -->
<polyline points="66750,76080
67800,76080
" style="stroke:#000000;stroke-width:70;
stroke-linejoin:miter; stroke-linecap:butt;
"/>
<!-- Line -->
<polyline points="98870,76080
97820,76080
" style="stroke:#000000;stroke-width:70;
stroke-linejoin:miter; stroke-linecap:butt;
"/>
<!-- Line -->
<polyline points="66750,73470
67800,73470
" style="stroke:#000000;stroke-width:70;
stroke-linejoin:miter; stroke-linecap:butt;
"/>
<!-- Line -->
<polyline points="98870,73470
97820,73470
" style="stroke:#000000;stroke-width:70;
stroke-linejoin:miter; stroke-linecap:butt;
"/>
<!-- Line -->
<polyline points="66750,70860
67800,70860
" style="stroke:#000000;stroke-width:70;
stroke-linejoin:miter; stroke-linecap:butt;
"/>
<!-- Line -->
<polyline points="98870,70860
97820,70860
" style="stroke:#000000;stroke-width:70;
stroke-linejoin:miter; stroke-linecap:butt;
"/>
<!-- Line -->
<polyline points="66750,68250
67800,68250
" style="stroke:#000000;stroke-width:70;
stroke-linejoin:miter; stroke-linecap:butt;
"/>
<!-- Line -->
<polyline points="98870,68250
97820,68250
" style="stroke:#000000;stroke-width:70;
stroke-linejoin:miter; stroke-linecap:butt;
"/>
<!-- Line -->
<polyline points="66750,65650
67800,65650
" style="stroke:#000000;stroke-width:70;
stroke-linejoin:miter; stroke-linecap:butt;
"/>
<!-- Line -->
<polyline points="98870,65650
97820,65650
" style="stroke:#000000;stroke-width:70;
stroke-linejoin:miter; stroke-linecap:butt;
"/>
<!-- Line -->
<polyline points="66750,63040
67800,63040
" style="stroke:#000000;stroke-width:70;
stroke-linejoin:miter; stroke-linecap:butt;
"/>
<!-- Line -->
<polyline points="98870,63040
97820,63040
" style="stroke:#000000;stroke-width:70;
stroke-linejoin:miter; stroke-linecap:butt;
"/>
<!-- Line -->
<polyline points="66750,76080
66750,75030
" style="stroke:#000000;stroke-width:70;
stroke-linejoin:miter; stroke-linecap:butt;
"/>
<!-- Line -->
<polyline points="66750,60560
66750,61610
" style="stroke:#000000;stroke-width:70;
stroke-linejoin:miter; stroke-linecap:butt;
"/>
<!-- Line -->
<polyline points="73170,76080
73170,75030
" style="stroke:#000000;stroke-width:70;
stroke-linejoin:miter; stroke-linecap:butt;
"/>
<!-- Line -->
<polyline points="73170,60560
73170,61610
" style="stroke:#000000;stroke-width:70;
stroke-linejoin:miter; stroke-linecap:butt;
"/>
<!-- Line -->
<polyline points="79600,76080
79600,75030
" style="stroke:#000000;stroke-width:70;
stroke-linejoin:miter; stroke-linecap:butt;
"/>
<!-- Line -->
<polyline points="79600,60560
79600,61610
" style="stroke:#000000;stroke-width:70;
stroke-linejoin:miter; stroke-linecap:butt;
"/>
<!-- Line -->
<polyline points="86020,76080
86020,75030
" style="stroke:#000000;stroke-width:70;
stroke-linejoin:miter; stroke-linecap:butt;
"/>
<!-- Line -->
<polyline points="86020,60560
86020,61610
" style="stroke:#000000;stroke-width:70;
stroke-linejoin:miter; stroke-linecap:butt;
"/>
<!-- Line -->
<polyline points="92450,76080
92450,75030
" style="stroke:#000000;stroke-width:70;
stroke-linejoin:miter; stroke-linecap:butt;
"/>
<!-- Line -->
<polyline points="92450,60560
92450,61610
" style="stroke:#000000;stroke-width:70;
stroke-linejoin:miter; stroke-linecap:butt;
"/>
<!-- Line -->
<polyline points="98870,76080
98870,75030
" style="stroke:#000000;stroke-width:70;
stroke-linejoin:miter; stroke-linecap:butt;
"/>
<!-- Line -->
<polyline points="98870,60560
98870,61610
" style="stroke:#000000;stroke-width:70;
stroke-linejoin:miter; stroke-linecap:butt;
"/>
<!-- Line -->
<polyline points="66750,60560
66750,76080
98870,76080
98870,60560
66750,60560
" style="stroke:#000000;stroke-width:70;
stroke-linejoin:miter; stroke-linecap:butt;
"/>
<!-- Text -->
<!--  Begin plot #1  -->
<text xml:space="preserve" x="50600" y="19400" fill="#000000"  font-family="Times" font-style="normal" font-weight="normal" font-size="1200" text-anchor="end">RMSE</text>
<!-- Text -->
<!--  Begin plot #1  -->
<text xml:space="preserve" x="92870" y="19400" fill="#000000"  font-family="Times" font-style="normal" font-weight="normal" font-size="1200" text-anchor="end">penalty</text>
<!-- Text -->
<!--  Begin plot #1  -->
<text xml:space="preserve" x="50600" y="40970" fill="#000000"  font-family="Times" font-style="normal" font-weight="normal" font-size="1200" text-anchor="end">nForward</text>
<!-- Text -->
<!--  Begin plot #1  -->
<text xml:space="preserve" x="92870" y="40970" fill="#000000"  font-family="Times" font-style="normal" font-weight="normal" font-size="1200" text-anchor="end">de/dw influence [%]</text>
<!-- Text -->
<!--  Begin plot #1  -->
<text xml:space="preserve" x="50600" y="62550" fill="#000000"  font-family="Times" font-style="normal" font-weight="normal" font-size="1200" text-anchor="end">nBackward</text>
<!-- Text -->
<!--  Begin plot #1  -->
<text xml:space="preserve" x="92870" y="62550" fill="#000000"  font-family="Times" font-style="normal" font-weight="normal" font-size="1200" text-anchor="end">dp/dw influence [%]</text>
<!-- Text -->
<text xml:space="preserve" x="23730" y="33340" fill="#000000"  font-family="Times" font-style="normal" font-weight="normal" font-size="1200" text-anchor="end">8</text>
<!-- Text -->
<text xml:space="preserve" x="23730" y="30670" fill="#000000"  font-family="Times" font-style="normal" font-weight="normal" font-size="1200" text-anchor="end">9</text>
<!-- Text -->
<text xml:space="preserve" x="23730" y="28000" fill="#000000"  font-family="Times" font-style="normal" font-weight="normal" font-size="1200" text-anchor="end">10</text>
<!-- Text -->
<text xml:space="preserve" x="23730" y="25320" fill="#000000"  font-family="Times" font-style="normal" font-weight="normal" font-size="1200" text-anchor="end">11</text>
<!-- Text -->
<text xml:space="preserve" x="23730" y="22650" fill="#000000"  font-family="Times" font-style="normal" font-weight="normal" font-size="1200" text-anchor="end">12</text>
<!-- Text -->
<text xml:space="preserve" x="23730" y="19980" fill="#000000"  font-family="Times" font-style="normal" font-weight="normal" font-size="1200" text-anchor="end">13</text>
<!-- Text -->
<text xml:space="preserve" x="24480" y="34810" fill="#000000"  font-family="Times" font-style="normal" font-weight="normal" font-size="1200" text-anchor="middle">0</text>
<!-- Text -->
<text xml:space="preserve" x="30900" y="34810" fill="#000000"  font-family="Times" font-style="normal" font-weight="normal" font-size="1200" text-anchor="middle">10</text>
<!-- Text -->
<text xml:space="preserve" x="37330" y="34810" fill="#000000"  font-family="Times" font-style="normal" font-weight="normal" font-size="1200" text-anchor="middle">20</text>
<!-- Text -->
<text xml:space="preserve" x="43750" y="34810" fill="#000000"  font-family="Times" font-style="normal" font-weight="normal" font-size="1200" text-anchor="middle">30</text>
<!-- Text -->
<text xml:space="preserve" x="50180" y="34810" fill="#000000"  font-family="Times" font-style="normal" font-weight="normal" font-size="1200" text-anchor="middle">40</text>
<!-- Text -->
<text xml:space="preserve" x="56600" y="34810" fill="#000000"  font-family="Times" font-style="normal" font-weight="normal" font-size="1200" text-anchor="middle">50</text>
<!-- Text -->
<text xml:space="preserve" x="66000" y="33560" fill="#000000"  font-family="Times" font-style="normal" font-weight="normal" font-size="1200" text-anchor="end">-0.2</text>
<!-- Text -->
<text xml:space="preserve" x="66000" y="31340" fill="#000000"  font-family="Times" font-style="normal" font-weight="normal" font-size="1200" text-anchor="end">0</text>
<!-- Text -->
<text xml:space="preserve" x="66000" y="29120" fill="#000000"  font-family="Times" font-style="normal" font-weight="normal" font-size="1200" text-anchor="end">0.2</text>
<!-- Text -->
<text xml:space="preserve" x="66000" y="26900" fill="#000000"  font-family="Times" font-style="normal" font-weight="normal" font-size="1200" text-anchor="end">0.4</text>
<!-- Text -->
<text xml:space="preserve" x="66000" y="24690" fill="#000000"  font-family="Times" font-style="normal" font-weight="normal" font-size="1200" text-anchor="end">0.6</text>
<!-- Text -->
<text xml:space="preserve" x="66000" y="22470" fill="#000000"  font-family="Times" font-style="normal" font-weight="normal" font-size="1200" text-anchor="end">0.8</text>
<!-- Text -->
<text xml:space="preserve" x="66000" y="20250" fill="#000000"  font-family="Times" font-style="normal" font-weight="normal" font-size="1200" text-anchor="end">1</text>
<!-- Text -->
<text xml:space="preserve" x="66000" y="18030" fill="#000000"  font-family="Times" font-style="normal" font-weight="normal" font-size="1200" text-anchor="end">1.2</text>
<!-- Text -->
<text xml:space="preserve" x="66750" y="34810" fill="#000000"  font-family="Times" font-style="normal" font-weight="normal" font-size="1200" text-anchor="middle">0</text>
<!-- Text -->
<text xml:space="preserve" x="73170" y="34810" fill="#000000"  font-family="Times" font-style="normal" font-weight="normal" font-size="1200" text-anchor="middle">10</text>
<!-- Text -->
<text xml:space="preserve" x="79600" y="34810" fill="#000000"  font-family="Times" font-style="normal" font-weight="normal" font-size="1200" text-anchor="middle">20</text>
<!-- Text -->
<text xml:space="preserve" x="86020" y="34810" fill="#000000"  font-family="Times" font-style="normal" font-weight="normal" font-size="1200" text-anchor="middle">30</text>
<!-- Text -->
<text xml:space="preserve" x="92450" y="34810" fill="#000000"  font-family="Times" font-style="normal" font-weight="normal" font-size="1200" text-anchor="middle">40</text>
<!-- Text -->
<text xml:space="preserve" x="98870" y="34810" fill="#000000"  font-family="Times" font-style="normal" font-weight="normal" font-size="1200" text-anchor="middle">50</text>
<!-- Text -->
<text xml:space="preserve" x="23730" y="55130" fill="#000000"  font-family="Times" font-style="normal" font-weight="normal" font-size="1200" text-anchor="end">0</text>
<!-- Text -->
<text xml:space="preserve" x="23730" y="52020" fill="#000000"  font-family="Times" font-style="normal" font-weight="normal" font-size="1200" text-anchor="end">50</text>
<!-- Text -->
<text xml:space="preserve" x="23730" y="48920" fill="#000000"  font-family="Times" font-style="normal" font-weight="normal" font-size="1200" text-anchor="end">100</text>
<!-- Text -->
<text xml:space="preserve" x="23730" y="45810" fill="#000000"  font-family="Times" font-style="normal" font-weight="normal" font-size="1200" text-anchor="end">150</text>
<!-- Text -->
<text xml:space="preserve" x="23730" y="42710" fill="#000000"  font-family="Times" font-style="normal" font-weight="normal" font-size="1200" text-anchor="end">200</text>
<!-- Text -->
<text xml:space="preserve" x="23730" y="39600" fill="#000000"  font-family="Times" font-style="normal" font-weight="normal" font-size="1200" text-anchor="end">250</text>
<!-- Text -->
<text xml:space="preserve" x="24480" y="56380" fill="#000000"  font-family="Times" font-style="normal" font-weight="normal" font-size="1200" text-anchor="middle">0</text>
<!-- Text -->
<text xml:space="preserve" x="30900" y="56380" fill="#000000"  font-family="Times" font-style="normal" font-weight="normal" font-size="1200" text-anchor="middle">10</text>
<!-- Text -->
<text xml:space="preserve" x="37330" y="56380" fill="#000000"  font-family="Times" font-style="normal" font-weight="normal" font-size="1200" text-anchor="middle">20</text>
<!-- Text -->
<text xml:space="preserve" x="43750" y="56380" fill="#000000"  font-family="Times" font-style="normal" font-weight="normal" font-size="1200" text-anchor="middle">30</text>
<!-- Text -->
<text xml:space="preserve" x="50180" y="56380" fill="#000000"  font-family="Times" font-style="normal" font-weight="normal" font-size="1200" text-anchor="middle">40</text>
<!-- Text -->
<text xml:space="preserve" x="56600" y="56380" fill="#000000"  font-family="Times" font-style="normal" font-weight="normal" font-size="1200" text-anchor="middle">50</text>
<!-- Text -->
<text xml:space="preserve" x="66000" y="55130" fill="#000000"  font-family="Times" font-style="normal" font-weight="normal" font-size="1200" text-anchor="end">0</text>
<!-- Text -->
<text xml:space="preserve" x="66000" y="52520" fill="#000000"  font-family="Times" font-style="normal" font-weight="normal" font-size="1200" text-anchor="end">20</text>
<!-- Text -->
<text xml:space="preserve" x="66000" y="49910" fill="#000000"  font-family="Times" font-style="normal" font-weight="normal" font-size="1200" text-anchor="end">40</text>
<!-- Text -->
<text xml:space="preserve" x="66000" y="47300" fill="#000000"  font-family="Times" font-style="normal" font-weight="normal" font-size="1200" text-anchor="end">60</text>
<!-- Text -->
<text xml:space="preserve" x="66000" y="44690" fill="#000000"  font-family="Times" font-style="normal" font-weight="normal" font-size="1200" text-anchor="end">80</text>
<!-- Text -->
<text xml:space="preserve" x="66000" y="42080" fill="#000000"  font-family="Times" font-style="normal" font-weight="normal" font-size="1200" text-anchor="end">100</text>
<!-- Text -->
<text xml:space="preserve" x="66750" y="56380" fill="#000000"  font-family="Times" font-style="normal" font-weight="normal" font-size="1200" text-anchor="middle">0</text>
<!-- Text -->
<text xml:space="preserve" x="73170" y="56380" fill="#000000"  font-family="Times" font-style="normal" font-weight="normal" font-size="1200" text-anchor="middle">10</text>
<!-- Text -->
<text xml:space="preserve" x="79600" y="56380" fill="#000000"  font-family="Times" font-style="normal" font-weight="normal" font-size="1200" text-anchor="middle">20</text>
<!-- Text -->
<text xml:space="preserve" x="86020" y="56380" fill="#000000"  font-family="Times" font-style="normal" font-weight="normal" font-size="1200" text-anchor="middle">30</text>
<!-- Text -->
<text xml:space="preserve" x="92450" y="56380" fill="#000000"  font-family="Times" font-style="normal" font-weight="normal" font-size="1200" text-anchor="middle">40</text>
<!-- Text -->
<text xml:space="preserve" x="98870" y="56380" fill="#000000"  font-family="Times" font-style="normal" font-weight="normal" font-size="1200" text-anchor="middle">50</text>
<!-- Text -->
<text xml:space="preserve" x="23730" y="76700" fill="#000000"  font-family="Times" font-style="normal" font-weight="normal" font-size="1200" text-anchor="end">0</text>
<!-- Text -->
<text xml:space="preserve" x="23730" y="73600" fill="#000000"  font-family="Times" font-style="normal" font-weight="normal" font-size="1200" text-anchor="end">50</text>
<!-- Text -->
<text xml:space="preserve" x="23730" y="70490" fill="#000000"  font-family="Times" font-style="normal" font-weight="normal" font-size="1200" text-anchor="end">100</text>
<!-- Text -->
<text xml:space="preserve" x="23730" y="67390" fill="#000000"  font-family="Times" font-style="normal" font-weight="normal" font-size="1200" text-anchor="end">150</text>
<!-- Text -->
<text xml:space="preserve" x="23730" y="64280" fill="#000000"  font-family="Times" font-style="normal" font-weight="normal" font-size="1200" text-anchor="end">200</text>
<!-- Text -->
<text xml:space="preserve" x="23730" y="61180" fill="#000000"  font-family="Times" font-style="normal" font-weight="normal" font-size="1200" text-anchor="end">250</text>
<!-- Text -->
<text xml:space="preserve" x="24480" y="77950" fill="#000000"  font-family="Times" font-style="normal" font-weight="normal" font-size="1200" text-anchor="middle">0</text>
<!-- Text -->
<text xml:space="preserve" x="30900" y="77950" fill="#000000"  font-family="Times" font-style="normal" font-weight="normal" font-size="1200" text-anchor="middle">10</text>
<!-- Text -->
<text xml:space="preserve" x="37330" y="77950" fill="#000000"  font-family="Times" font-style="normal" font-weight="normal" font-size="1200" text-anchor="middle">20</text>
<!-- Text -->
<text xml:space="preserve" x="43750" y="77950" fill="#000000"  font-family="Times" font-style="normal" font-weight="normal" font-size="1200" text-anchor="middle">30</text>
<!-- Text -->
<text xml:space="preserve" x="50180" y="77950" fill="#000000"  font-family="Times" font-style="normal" font-weight="normal" font-size="1200" text-anchor="middle">40</text>
<!-- Text -->
<text xml:space="preserve" x="56600" y="77950" fill="#000000"  font-family="Times" font-style="normal" font-weight="normal" font-size="1200" text-anchor="middle">50</text>
<!-- Text -->
<text xml:space="preserve" x="66000" y="76700" fill="#000000"  font-family="Times" font-style="normal" font-weight="normal" font-size="1200" text-anchor="end">0</text>
<!-- Text -->
<text xml:space="preserve" x="66000" y="74090" fill="#000000"  font-family="Times" font-style="normal" font-weight="normal" font-size="1200" text-anchor="end">20</text>
<!-- Text -->
<text xml:space="preserve" x="66000" y="71480" fill="#000000"  font-family="Times" font-style="normal" font-weight="normal" font-size="1200" text-anchor="end">40</text>
<!-- Text -->
<text xml:space="preserve" x="66000" y="68870" fill="#000000"  font-family="Times" font-style="normal" font-weight="normal" font-size="1200" text-anchor="end">60</text>
<!-- Text -->
<text xml:space="preserve" x="66000" y="66270" fill="#000000"  font-family="Times" font-style="normal" font-weight="normal" font-size="1200" text-anchor="end">80</text>
<!-- Text -->
<text xml:space="preserve" x="66000" y="63660" fill="#000000"  font-family="Times" font-style="normal" font-weight="normal" font-size="1200" text-anchor="end">100</text>
<!-- Text -->
<text xml:space="preserve" x="66750" y="77950" fill="#000000"  font-family="Times" font-style="normal" font-weight="normal" font-size="1200" text-anchor="middle">0</text>
<!-- Text -->
<text xml:space="preserve" x="73170" y="77950" fill="#000000"  font-family="Times" font-style="normal" font-weight="normal" font-size="1200" text-anchor="middle">10</text>
<!-- Text -->
<text xml:space="preserve" x="79600" y="77950" fill="#000000"  font-family="Times" font-style="normal" font-weight="normal" font-size="1200" text-anchor="middle">20</text>
<!-- Text -->
<text xml:space="preserve" x="86020" y="77950" fill="#000000"  font-family="Times" font-style="normal" font-weight="normal" font-size="1200" text-anchor="middle">30</text>
<!-- Text -->
<text xml:space="preserve" x="92450" y="77950" fill="#000000"  font-family="Times" font-style="normal" font-weight="normal" font-size="1200" text-anchor="middle">40</text>
<!-- Text -->
<text xml:space="preserve" x="98870" y="77950" fill="#000000"  font-family="Times" font-style="normal" font-weight="normal" font-size="1200" text-anchor="middle">50</text>
</g>
</svg>
