<?xml version="1.0" encoding="UTF-8" standalone="no"?>
<!-- Created with Inkscape (http://www.inkscape.org/) -->

<svg
   xmlns:dc="http://purl.org/dc/elements/1.1/"
   xmlns:cc="http://creativecommons.org/ns#"
   xmlns:rdf="http://www.w3.org/1999/02/22-rdf-syntax-ns#"
   xmlns:svg="http://www.w3.org/2000/svg"
   xmlns="http://www.w3.org/2000/svg"
   xmlns:sodipodi="http://sodipodi.sourceforge.net/DTD/sodipodi-0.dtd"
   xmlns:inkscape="http://www.inkscape.org/namespaces/inkscape"
   width="675.3017"
   height="234.54568"
   id="svg2"
   version="1.1"
   inkscape:version="0.48.4 r9939"
   sodipodi:docname="tetragonal.svg">
  <defs
     id="defs4" />
  <sodipodi:namedview
     id="base"
     pagecolor="#ffffff"
     bordercolor="#666666"
     borderopacity="1.0"
     inkscape:pageopacity="0.0"
     inkscape:pageshadow="2"
     inkscape:zoom="0.7"
     inkscape:cx="429.41713"
     inkscape:cy="446.01156"
     inkscape:document-units="px"
     inkscape:current-layer="layer1"
     showgrid="true"
     fit-margin-top="0"
     fit-margin-left="0"
     fit-margin-right="0"
     fit-margin-bottom="0"
     inkscape:window-width="1280"
     inkscape:window-height="976"
     inkscape:window-x="0"
     inkscape:window-y="25"
     inkscape:window-maximized="1">
    <inkscape:grid
       type="xygrid"
       id="grid2985"
       empspacing="5"
       visible="true"
       enabled="true"
       snapvisiblegridlinesonly="true"
       originx="-175.35714px"
       originy="-515px" />
  </sodipodi:namedview>
  <metadata
     id="metadata7">
    <rdf:RDF>
      <cc:Work
         rdf:about="">
        <dc:format>image/svg+xml</dc:format>
        <dc:type
           rdf:resource="http://purl.org/dc/dcmitype/StillImage" />
        <dc:title></dc:title>
      </cc:Work>
    </rdf:RDF>
  </metadata>
  <g
     inkscape:label="Layer 1"
     inkscape:groupmode="layer"
     id="layer1"
     transform="translate(-175.35714,-302.8165)">
    <g
       id="g4228">
      <path
         inkscape:connector-curvature="0"
         id="path3032"
         d="m 340,512.36218 80,20"
         style="opacity:0.3;fill:none;stroke:#000000;stroke-width:1;stroke-linecap:butt;stroke-linejoin:miter;stroke-miterlimit:4;stroke-opacity:1;stroke-dasharray:none" />
      <path
         transform="translate(45.357143,-84.545686)"
         d="m 140,392.36218 a 5,5 0 1 1 -10,0 5,5 0 1 1 10,0 z"
         sodipodi:ry="5"
         sodipodi:rx="5"
         sodipodi:cy="392.36218"
         sodipodi:cx="135"
         id="path3810"
         style="stroke-width:1;stroke-miterlimit:4;stroke-dasharray:none"
         sodipodi:type="arc" />
      <path
         transform="translate(45.35714,120)"
         d="m 140,392.36218 a 5,5 0 1 1 -10,0 5,5 0 1 1 10,0 z"
         sodipodi:ry="5"
         sodipodi:rx="5"
         sodipodi:cy="392.36218"
         sodipodi:cx="135"
         id="path3810-5"
         style="stroke-width:1;stroke-miterlimit:4;stroke-dasharray:none"
         sodipodi:type="arc" />
      <path
         transform="translate(125.35714,140)"
         d="m 140,392.36218 a 5,5 0 1 1 -10,0 5,5 0 1 1 10,0 z"
         sodipodi:ry="5"
         sodipodi:rx="5"
         sodipodi:cy="392.36218"
         sodipodi:cx="135"
         id="path3810-3"
         style="stroke-width:1;stroke-miterlimit:4;stroke-dasharray:none"
         sodipodi:type="arc" />
      <path
         transform="translate(125.35714,-64.642858)"
         d="m 140,392.36218 a 5,5 0 1 1 -10,0 5,5 0 1 1 10,0 z"
         sodipodi:ry="5"
         sodipodi:rx="5"
         sodipodi:cy="392.36218"
         sodipodi:cx="135"
         id="path3810-1"
         style="stroke-width:1;stroke-miterlimit:4;stroke-dasharray:none"
         sodipodi:type="arc" />
      <path
         transform="translate(205.35714,-84.285715)"
         d="m 140,392.36218 a 5,5 0 1 1 -10,0 5,5 0 1 1 10,0 z"
         sodipodi:ry="5"
         sodipodi:rx="5"
         sodipodi:cy="392.36218"
         sodipodi:cx="135"
         id="path3810-6"
         style="stroke-width:1;stroke-miterlimit:4;stroke-dasharray:none"
         sodipodi:type="arc" />
      <path
         transform="translate(285.35714,-64.642857)"
         d="m 140,392.36218 a 5,5 0 1 1 -10,0 5,5 0 1 1 10,0 z"
         sodipodi:ry="5"
         sodipodi:rx="5"
         sodipodi:cy="392.36218"
         sodipodi:cx="135"
         id="path3810-4"
         style="stroke-width:1;stroke-miterlimit:4;stroke-dasharray:none"
         sodipodi:type="arc" />
      <path
         transform="translate(285.35714,140)"
         d="m 140,392.36218 a 5,5 0 1 1 -10,0 5,5 0 1 1 10,0 z"
         sodipodi:ry="5"
         sodipodi:rx="5"
         sodipodi:cy="392.36218"
         sodipodi:cx="135"
         id="path3810-0"
         style="stroke-width:1;stroke-miterlimit:4;stroke-dasharray:none"
         sodipodi:type="arc" />
      <path
         transform="translate(205.35714,120)"
         d="m 140,392.36218 a 5,5 0 1 1 -10,0 5,5 0 1 1 10,0 z"
         sodipodi:ry="5"
         sodipodi:rx="5"
         sodipodi:cy="392.36218"
         sodipodi:cx="135"
         id="path3810-48"
         style="opacity:0.3;stroke-width:1;stroke-miterlimit:4;stroke-dasharray:none"
         sodipodi:type="arc" />
      <path
         transform="translate(175.35714,347.36218)"
         inkscape:connector-curvature="0"
         id="path3378"
         d="m 4.64286,-40 0,205 80,20 160,0"
         style="fill:none;stroke:#000000;stroke-width:1px;stroke-linecap:butt;stroke-linejoin:miter;stroke-opacity:1" />
      <path
         transform="translate(175.35714,347.36218)"
         inkscape:connector-curvature="0"
         id="path3380"
         d="m 84.64286,-20 0,205"
         style="fill:none;stroke:#000000;stroke-width:1px;stroke-linecap:butt;stroke-linejoin:miter;stroke-opacity:1" />
      <path
         transform="translate(175.35714,347.36218)"
         inkscape:connector-curvature="0"
         id="path3382"
         d="m 244.64286,-20 0,205"
         style="fill:none;stroke:#000000;stroke-width:1px;stroke-linecap:butt;stroke-linejoin:miter;stroke-opacity:1" />
      <path
         transform="translate(175.35714,347.36218)"
         inkscape:connector-curvature="0"
         id="path3384"
         d="m 84.64286,-20 160,0"
         style="fill:none;stroke:#000000;stroke-width:1px;stroke-linecap:butt;stroke-linejoin:miter;stroke-opacity:1" />
      <path
         transform="translate(175.35714,347.36218)"
         inkscape:connector-curvature="0"
         id="path3386"
         d="m 4.64286,-40 80,20"
         style="fill:none;stroke:#000000;stroke-width:1px;stroke-linecap:butt;stroke-linejoin:miter;stroke-opacity:1" />
      <path
         transform="translate(175.35714,347.36218)"
         inkscape:connector-curvature="0"
         id="path3388"
         d="m 164.64286,-40 80,20"
         style="fill:none;stroke:#000000;stroke-width:1px;stroke-linecap:butt;stroke-linejoin:miter;stroke-opacity:1" />
      <path
         transform="translate(175.35714,347.36218)"
         inkscape:connector-curvature="0"
         id="path3390"
         d="m 4.64286,-40 160,0"
         style="fill:none;stroke:#000000;stroke-width:1px;stroke-linecap:butt;stroke-linejoin:miter;stroke-opacity:1" />
      <path
         transform="translate(175.35714,347.36218)"
         inkscape:connector-curvature="0"
         id="path3392"
         d="m 4.64286,165 160,0 0,-205"
         style="opacity:0.3;fill:none;stroke:#000000;stroke-width:1px;stroke-linecap:butt;stroke-linejoin:miter;stroke-opacity:1" />
    </g>
    <g
       id="g4368"
       transform="translate(55.558389,0)">
      <path
         inkscape:connector-curvature="0"
         id="path3032-1"
         d="m 709.74333,512.36218 80,20"
         style="opacity:0.3;fill:none;stroke:#000000;stroke-width:1;stroke-linecap:butt;stroke-linejoin:miter;stroke-miterlimit:4;stroke-opacity:1;stroke-dasharray:none" />
      <path
         transform="translate(415.10047,-84.545686)"
         d="m 140,392.36218 a 5,5 0 1 1 -10,0 5,5 0 1 1 10,0 z"
         sodipodi:ry="5"
         sodipodi:rx="5"
         sodipodi:cy="392.36218"
         sodipodi:cx="135"
         id="path3810-12"
         style="stroke-width:1;stroke-miterlimit:4;stroke-dasharray:none"
         sodipodi:type="arc" />
      <path
         transform="translate(415.10047,120)"
         d="m 140,392.36218 a 5,5 0 1 1 -10,0 5,5 0 1 1 10,0 z"
         sodipodi:ry="5"
         sodipodi:rx="5"
         sodipodi:cy="392.36218"
         sodipodi:cx="135"
         id="path3810-5-2"
         style="stroke-width:1;stroke-miterlimit:4;stroke-dasharray:none"
         sodipodi:type="arc" />
      <path
         transform="translate(495.10047,140)"
         d="m 140,392.36218 a 5,5 0 1 1 -10,0 5,5 0 1 1 10,0 z"
         sodipodi:ry="5"
         sodipodi:rx="5"
         sodipodi:cy="392.36218"
         sodipodi:cx="135"
         id="path3810-3-3"
         style="stroke-width:1;stroke-miterlimit:4;stroke-dasharray:none"
         sodipodi:type="arc" />
      <path
         transform="translate(495.10047,-64.642858)"
         d="m 140,392.36218 a 5,5 0 1 1 -10,0 5,5 0 1 1 10,0 z"
         sodipodi:ry="5"
         sodipodi:rx="5"
         sodipodi:cy="392.36218"
         sodipodi:cx="135"
         id="path3810-1-8"
         style="stroke-width:1;stroke-miterlimit:4;stroke-dasharray:none"
         sodipodi:type="arc" />
      <path
         transform="translate(575.10047,-84.285715)"
         d="m 140,392.36218 a 5,5 0 1 1 -10,0 5,5 0 1 1 10,0 z"
         sodipodi:ry="5"
         sodipodi:rx="5"
         sodipodi:cy="392.36218"
         sodipodi:cx="135"
         id="path3810-6-4"
         style="stroke-width:1;stroke-miterlimit:4;stroke-dasharray:none"
         sodipodi:type="arc" />
      <path
         transform="translate(655.10047,-64.642857)"
         d="m 140,392.36218 a 5,5 0 1 1 -10,0 5,5 0 1 1 10,0 z"
         sodipodi:ry="5"
         sodipodi:rx="5"
         sodipodi:cy="392.36218"
         sodipodi:cx="135"
         id="path3810-4-7"
         style="stroke-width:1;stroke-miterlimit:4;stroke-dasharray:none"
         sodipodi:type="arc" />
      <path
         transform="translate(655.10047,140)"
         d="m 140,392.36218 a 5,5 0 1 1 -10,0 5,5 0 1 1 10,0 z"
         sodipodi:ry="5"
         sodipodi:rx="5"
         sodipodi:cy="392.36218"
         sodipodi:cx="135"
         id="path3810-0-6"
         style="stroke-width:1;stroke-miterlimit:4;stroke-dasharray:none"
         sodipodi:type="arc" />
      <path
         transform="translate(575.10047,120)"
         d="m 140,392.36218 a 5,5 0 1 1 -10,0 5,5 0 1 1 10,0 z"
         sodipodi:ry="5"
         sodipodi:rx="5"
         sodipodi:cy="392.36218"
         sodipodi:cx="135"
         id="path3810-48-1"
         style="opacity:0.3;stroke-width:1;stroke-miterlimit:4;stroke-dasharray:none"
         sodipodi:type="arc" />
      <path
         inkscape:connector-curvature="0"
         id="path3378-2"
         d="m 549.74333,307.36218 0,205 80,20 160,0"
         style="fill:none;stroke:#000000;stroke-width:1px;stroke-linecap:butt;stroke-linejoin:miter;stroke-opacity:1" />
      <path
         inkscape:connector-curvature="0"
         id="path3380-9"
         d="m 629.74333,327.36218 0,205"
         style="fill:none;stroke:#000000;stroke-width:1px;stroke-linecap:butt;stroke-linejoin:miter;stroke-opacity:1" />
      <path
         inkscape:connector-curvature="0"
         id="path3382-3"
         d="m 789.74333,327.36218 0,205"
         style="fill:none;stroke:#000000;stroke-width:1px;stroke-linecap:butt;stroke-linejoin:miter;stroke-opacity:1" />
      <path
         inkscape:connector-curvature="0"
         id="path3384-9"
         d="m 629.74333,327.36218 160,0"
         style="fill:none;stroke:#000000;stroke-width:1px;stroke-linecap:butt;stroke-linejoin:miter;stroke-opacity:1" />
      <path
         inkscape:connector-curvature="0"
         id="path3386-9"
         d="m 549.74333,307.36218 80,20"
         style="fill:none;stroke:#000000;stroke-width:1px;stroke-linecap:butt;stroke-linejoin:miter;stroke-opacity:1" />
      <path
         inkscape:connector-curvature="0"
         id="path3388-3"
         d="m 709.74333,307.36218 80,20"
         style="fill:none;stroke:#000000;stroke-width:1px;stroke-linecap:butt;stroke-linejoin:miter;stroke-opacity:1" />
      <path
         inkscape:connector-curvature="0"
         id="path3390-1"
         d="m 549.74333,307.36218 160,0"
         style="fill:none;stroke:#000000;stroke-width:1px;stroke-linecap:butt;stroke-linejoin:miter;stroke-opacity:1" />
      <path
         inkscape:connector-curvature="0"
         id="path3392-1"
         d="m 549.74333,512.36218 160,0 0,-205"
         style="opacity:0.3;fill:none;stroke:#000000;stroke-width:1px;stroke-linecap:butt;stroke-linejoin:miter;stroke-opacity:1" />
    </g>
    <path
       sodipodi:type="arc"
       style="opacity:0.3;stroke-width:1;stroke-miterlimit:4;stroke-dasharray:none"
       id="path3810-12-9"
       sodipodi:cx="135"
       sodipodi:cy="392.36218"
       sodipodi:rx="5"
       sodipodi:ry="5"
       d="m 140,392.36218 a 5,5 0 1 1 -10,0 5,5 0 1 1 10,0 z"
       transform="translate(590.65887,27.727157)" />
    <path
       style="opacity:0.3;fill:none;stroke:#000000;stroke-width:1px;stroke-linecap:butt;stroke-linejoin:miter;stroke-opacity:1"
       d="m 605.5584,307.36218 240,225"
       id="path4387"
       inkscape:connector-curvature="0" />
    <path
       style="opacity:0.3;fill:none;stroke:#000000;stroke-width:1px;stroke-linecap:butt;stroke-linejoin:miter;stroke-opacity:1"
       d="m 765.5584,307.36218 -80,225"
       id="path4389"
       inkscape:connector-curvature="0" />
    <path
       style="opacity:0.3;fill:none;stroke:#000000;stroke-width:1px;stroke-linecap:butt;stroke-linejoin:miter;stroke-opacity:1"
       d="m 845.5584,327.36218 -240,185"
       id="path4391"
       inkscape:connector-curvature="0" />
    <path
       style="opacity:0.3;fill:none;stroke:#000000;stroke-width:1px;stroke-linecap:butt;stroke-linejoin:miter;stroke-opacity:1"
       d="m 685.5584,327.36218 80,185"
       id="path4393"
       inkscape:connector-curvature="0" />
  </g>
</svg>
