<?xml version="1.0" standalone="no"?>
<!DOCTYPE svg PUBLIC "-//W3C//DTD SVG 1.1//EN"
"http://www.w3.org/Graphics/SVG/1.1/DTD/svg11.dtd">
<!-- Creator: fig2dev Version 3.2 Patchlevel 5d -->
<!-- CreationDate: Thu May 23 20:06:52 2013 -->
<!-- Magnification: 10.000 -->
<svg	xmlns="http://www.w3.org/2000/svg"
	xmlns:xlink="http://www.w3.org/1999/xlink"
	width="65.9in" height="51.1in"
	viewBox="20810 16830 79130 61270">
<g style="stroke-width:.025in; fill:none">
<!-- Line -->
<polyline points="51350,18780
55100,18780
" style="stroke:#000000;stroke-width:70;
stroke-linejoin:miter; stroke-linecap:butt;
"/>
<!-- Line -->
<polyline points="25120,24430
25760,25390
26410,18750
27050,24750
27690,25290
28330,26390
28980,26250
29620,27120
30260,27910
30900,29100
31550,28660
32190,29030
32830,30120
33470,29620
34120,27720
34760,28130
35400,29280
36040,29850
36690,29620
37330,29000
37970,30010
38610,29940
39260,30330
39900,29790
40540,28720
41180,29220
41820,31050
42470,31050
43110,28040
43750,31210
44390,29540
45040,30410
45680,29630
46320,29040
46960,29430
47610,29450
48250,29570
48890,30140
49530,30160
50180,30360
50820,30320
51460,29780
52100,29840
52750,30720
53390,30260
54030,30180
54670,29760
55320,31050
55960,30330
56600,29800
" style="stroke:#000000;stroke-width:70;
stroke-linejoin:miter; stroke-linecap:butt;
"/>
<!-- Line -->
<polyline points="93620,18780
97370,18780
" style="stroke:#000000;stroke-width:70;
stroke-linejoin:miter; stroke-linecap:butt;
"/>
<!-- Line -->
<polyline points="67390,30720
68030,30720
68680,30720
69320,30720
69960,30720
70600,19630
71250,30720
71890,30720
72530,19630
73170,30720
73820,30720
74460,30720
75100,30720
75740,30720
76390,30720
77030,30720
77670,30720
78310,19630
78960,19630
79600,19630
80240,19630
80880,19630
81530,19630
82170,19630
82810,19630
83450,19630
84090,19630
84740,19630
85380,19630
86020,19630
86660,19630
87310,19630
87950,19630
88590,19630
89230,19630
89880,30720
90520,19630
91160,19630
91800,30720
92450,19630
93090,30720
93730,19630
94370,19630
95020,19630
95660,30720
96300,30720
96940,30720
97590,30720
98230,30720
98870,30720
" style="stroke:#000000;stroke-width:70;
stroke-linejoin:miter; stroke-linecap:butt;
"/>
<!-- Line -->
<polyline points="51350,40350
55100,40350
" style="stroke:#000000;stroke-width:70;
stroke-linejoin:miter; stroke-linecap:butt;
"/>
<!-- Line -->
<polyline points="25120,53830
25760,53520
26410,52830
27050,44320
27690,42020
28330,42020
28980,43890
29620,48670
30260,48920
30900,52710
31550,51710
32190,52770
32830,52150
33470,50840
34120,51780
34760,42020
35400,42020
36040,42020
36690,42020
37330,42020
37970,42020
38610,42020
39260,42020
39900,42020
40540,42020
41180,42020
41820,42020
42470,42020
43110,42020
43750,42020
44390,42020
45040,42020
45680,42020
46320,42020
46960,42020
47610,42020
48250,42020
48890,42020
49530,42020
50180,42020
50820,42020
51460,42020
52100,42020
52750,42020
53390,42020
54030,42020
54670,42020
55320,42020
55960,42020
56600,42020
" style="stroke:#000000;stroke-width:70;
stroke-linejoin:miter; stroke-linecap:butt;
"/>
<!-- Line -->
<polyline points="93620,40350
97370,40350
" style="stroke:#000000;stroke-width:70;
stroke-linejoin:miter; stroke-linecap:butt;
"/>
<!-- Line -->
<polyline points="67390,41460
68030,41460
68680,41460
69320,41460
69960,41460
70600,41590
71250,41460
71890,41460
72530,41460
73170,41460
73820,41460
74460,41460
75100,41460
75740,41460
76390,41460
77030,41460
77670,41460
78310,41850
78960,43680
79600,46680
80240,43160
80880,44590
81530,42900
82170,46550
82810,45240
83450,45370
84090,42370
84740,42760
85380,44850
86020,41850
86660,43940
87310,41980
87950,45370
88590,44070
89230,43940
89880,41460
90520,44200
91160,42370
91800,41460
92450,42240
93090,41460
93730,42240
94370,41460
95020,41460
95660,41460
96300,41460
96940,41460
97590,41460
98230,41460
98870,41460
" style="stroke:#000000;stroke-width:70;
stroke-linejoin:miter; stroke-linecap:butt;
"/>
<!-- Line -->
<polyline points="51350,61930
55100,61930
" style="stroke:#000000;stroke-width:70;
stroke-linejoin:miter; stroke-linecap:butt;
"/>
<!-- Line -->
<polyline points="25120,75580
25760,75270
26410,74780
27050,67330
27690,63600
28330,63600
28980,67140
29620,71420
30260,71490
30900,74650
31550,73780
32190,74710
32830,74160
33470,73470
34120,73850
34760,63600
35400,63600
36040,63600
36690,69560
37330,68320
37970,63600
38610,63600
39260,63600
39900,65340
40540,63600
41180,64220
41820,63600
42470,72980
43110,72290
43750,63600
44390,70180
45040,63600
45680,63600
46320,68130
46960,72040
47610,63600
48250,69930
48890,63600
49530,63600
50180,63600
50820,63600
51460,63600
52100,63600
52750,63600
53390,73780
54030,63600
54670,63600
55320,63600
55960,63600
56600,63600
" style="stroke:#000000;stroke-width:70;
stroke-linejoin:miter; stroke-linecap:butt;
"/>
<!-- Line -->
<polyline points="93620,61930
97370,61930
" style="stroke:#000000;stroke-width:70;
stroke-linejoin:miter; stroke-linecap:butt;
"/>
<!-- Line -->
<polyline points="67390,75170
68030,75170
68680,75170
69320,75170
69960,75170
70600,68120
71250,75170
71890,75170
72530,70730
73170,75170
73820,75170
74460,75170
75100,75170
75740,75170
76390,75170
77030,75170
77670,75170
78310,69430
78960,65780
79600,63950
80240,66950
80880,65780
81530,67080
82170,63430
82810,64210
83450,65520
84090,66430
84740,66430
85380,66820
86020,68120
86660,65260
87310,68780
87950,65650
88590,66170
89230,67860
89880,75170
90520,65260
91160,68390
91800,75170
92450,69690
93090,75170
93730,69690
94370,70470
95020,69430
95660,75170
96300,75170
96940,75170
97590,75170
98230,75170
98870,75170
" style="stroke:#000000;stroke-width:70;
stroke-linejoin:miter; stroke-linecap:butt;
"/>
<!-- Line -->
<polyline points="24480,32720
25530,32720
" style="stroke:#000000;stroke-width:70;
stroke-linejoin:miter; stroke-linecap:butt;
"/>
<!-- Line -->
<polyline points="56600,32720
55550,32720
" style="stroke:#000000;stroke-width:70;
stroke-linejoin:miter; stroke-linecap:butt;
"/>
<!-- Line -->
<polyline points="24480,30050
25530,30050
" style="stroke:#000000;stroke-width:70;
stroke-linejoin:miter; stroke-linecap:butt;
"/>
<!-- Line -->
<polyline points="56600,30050
55550,30050
" style="stroke:#000000;stroke-width:70;
stroke-linejoin:miter; stroke-linecap:butt;
"/>
<!-- Line -->
<polyline points="24480,27380
25530,27380
" style="stroke:#000000;stroke-width:70;
stroke-linejoin:miter; stroke-linecap:butt;
"/>
<!-- Line -->
<polyline points="56600,27380
55550,27380
" style="stroke:#000000;stroke-width:70;
stroke-linejoin:miter; stroke-linecap:butt;
"/>
<!-- Line -->
<polyline points="24480,24700
25530,24700
" style="stroke:#000000;stroke-width:70;
stroke-linejoin:miter; stroke-linecap:butt;
"/>
<!-- Line -->
<polyline points="56600,24700
55550,24700
" style="stroke:#000000;stroke-width:70;
stroke-linejoin:miter; stroke-linecap:butt;
"/>
<!-- Line -->
<polyline points="24480,22030
25530,22030
" style="stroke:#000000;stroke-width:70;
stroke-linejoin:miter; stroke-linecap:butt;
"/>
<!-- Line -->
<polyline points="56600,22030
55550,22030
" style="stroke:#000000;stroke-width:70;
stroke-linejoin:miter; stroke-linecap:butt;
"/>
<!-- Line -->
<polyline points="24480,19360
25530,19360
" style="stroke:#000000;stroke-width:70;
stroke-linejoin:miter; stroke-linecap:butt;
"/>
<!-- Line -->
<polyline points="56600,19360
55550,19360
" style="stroke:#000000;stroke-width:70;
stroke-linejoin:miter; stroke-linecap:butt;
"/>
<!-- Line -->
<polyline points="24480,32940
24480,31890
" style="stroke:#000000;stroke-width:70;
stroke-linejoin:miter; stroke-linecap:butt;
"/>
<!-- Line -->
<polyline points="24480,17410
24480,18460
" style="stroke:#000000;stroke-width:70;
stroke-linejoin:miter; stroke-linecap:butt;
"/>
<!-- Line -->
<polyline points="30900,32940
30900,31890
" style="stroke:#000000;stroke-width:70;
stroke-linejoin:miter; stroke-linecap:butt;
"/>
<!-- Line -->
<polyline points="30900,17410
30900,18460
" style="stroke:#000000;stroke-width:70;
stroke-linejoin:miter; stroke-linecap:butt;
"/>
<!-- Line -->
<polyline points="37330,32940
37330,31890
" style="stroke:#000000;stroke-width:70;
stroke-linejoin:miter; stroke-linecap:butt;
"/>
<!-- Line -->
<polyline points="37330,17410
37330,18460
" style="stroke:#000000;stroke-width:70;
stroke-linejoin:miter; stroke-linecap:butt;
"/>
<!-- Line -->
<polyline points="43750,32940
43750,31890
" style="stroke:#000000;stroke-width:70;
stroke-linejoin:miter; stroke-linecap:butt;
"/>
<!-- Line -->
<polyline points="43750,17410
43750,18460
" style="stroke:#000000;stroke-width:70;
stroke-linejoin:miter; stroke-linecap:butt;
"/>
<!-- Line -->
<polyline points="50180,32940
50180,31890
" style="stroke:#000000;stroke-width:70;
stroke-linejoin:miter; stroke-linecap:butt;
"/>
<!-- Line -->
<polyline points="50180,17410
50180,18460
" style="stroke:#000000;stroke-width:70;
stroke-linejoin:miter; stroke-linecap:butt;
"/>
<!-- Line -->
<polyline points="56600,32940
56600,31890
" style="stroke:#000000;stroke-width:70;
stroke-linejoin:miter; stroke-linecap:butt;
"/>
<!-- Line -->
<polyline points="56600,17410
56600,18460
" style="stroke:#000000;stroke-width:70;
stroke-linejoin:miter; stroke-linecap:butt;
"/>
<!-- Line -->
<polyline points="24480,17410
24480,32940
56600,32940
56600,17410
24480,17410
" style="stroke:#000000;stroke-width:70;
stroke-linejoin:miter; stroke-linecap:butt;
"/>
<!-- Line -->
<!--  End plot #1  -->
<polyline points="66750,32940
67800,32940
" style="stroke:#000000;stroke-width:70;
stroke-linejoin:miter; stroke-linecap:butt;
"/>
<!-- Line -->
<polyline points="98870,32940
97820,32940
" style="stroke:#000000;stroke-width:70;
stroke-linejoin:miter; stroke-linecap:butt;
"/>
<!-- Line -->
<polyline points="66750,30720
67800,30720
" style="stroke:#000000;stroke-width:70;
stroke-linejoin:miter; stroke-linecap:butt;
"/>
<!-- Line -->
<polyline points="98870,30720
97820,30720
" style="stroke:#000000;stroke-width:70;
stroke-linejoin:miter; stroke-linecap:butt;
"/>
<!-- Line -->
<polyline points="66750,28500
67800,28500
" style="stroke:#000000;stroke-width:70;
stroke-linejoin:miter; stroke-linecap:butt;
"/>
<!-- Line -->
<polyline points="98870,28500
97820,28500
" style="stroke:#000000;stroke-width:70;
stroke-linejoin:miter; stroke-linecap:butt;
"/>
<!-- Line -->
<polyline points="66750,26280
67800,26280
" style="stroke:#000000;stroke-width:70;
stroke-linejoin:miter; stroke-linecap:butt;
"/>
<!-- Line -->
<polyline points="98870,26280
97820,26280
" style="stroke:#000000;stroke-width:70;
stroke-linejoin:miter; stroke-linecap:butt;
"/>
<!-- Line -->
<polyline points="66750,24070
67800,24070
" style="stroke:#000000;stroke-width:70;
stroke-linejoin:miter; stroke-linecap:butt;
"/>
<!-- Line -->
<polyline points="98870,24070
97820,24070
" style="stroke:#000000;stroke-width:70;
stroke-linejoin:miter; stroke-linecap:butt;
"/>
<!-- Line -->
<polyline points="66750,21850
67800,21850
" style="stroke:#000000;stroke-width:70;
stroke-linejoin:miter; stroke-linecap:butt;
"/>
<!-- Line -->
<polyline points="98870,21850
97820,21850
" style="stroke:#000000;stroke-width:70;
stroke-linejoin:miter; stroke-linecap:butt;
"/>
<!-- Line -->
<polyline points="66750,19630
67800,19630
" style="stroke:#000000;stroke-width:70;
stroke-linejoin:miter; stroke-linecap:butt;
"/>
<!-- Line -->
<polyline points="98870,19630
97820,19630
" style="stroke:#000000;stroke-width:70;
stroke-linejoin:miter; stroke-linecap:butt;
"/>
<!-- Line -->
<polyline points="66750,17410
67800,17410
" style="stroke:#000000;stroke-width:70;
stroke-linejoin:miter; stroke-linecap:butt;
"/>
<!-- Line -->
<polyline points="98870,17410
97820,17410
" style="stroke:#000000;stroke-width:70;
stroke-linejoin:miter; stroke-linecap:butt;
"/>
<!-- Line -->
<polyline points="66750,32940
66750,31890
" style="stroke:#000000;stroke-width:70;
stroke-linejoin:miter; stroke-linecap:butt;
"/>
<!-- Line -->
<polyline points="66750,17410
66750,18460
" style="stroke:#000000;stroke-width:70;
stroke-linejoin:miter; stroke-linecap:butt;
"/>
<!-- Line -->
<polyline points="73170,32940
73170,31890
" style="stroke:#000000;stroke-width:70;
stroke-linejoin:miter; stroke-linecap:butt;
"/>
<!-- Line -->
<polyline points="73170,17410
73170,18460
" style="stroke:#000000;stroke-width:70;
stroke-linejoin:miter; stroke-linecap:butt;
"/>
<!-- Line -->
<polyline points="79600,32940
79600,31890
" style="stroke:#000000;stroke-width:70;
stroke-linejoin:miter; stroke-linecap:butt;
"/>
<!-- Line -->
<polyline points="79600,17410
79600,18460
" style="stroke:#000000;stroke-width:70;
stroke-linejoin:miter; stroke-linecap:butt;
"/>
<!-- Line -->
<polyline points="86020,32940
86020,31890
" style="stroke:#000000;stroke-width:70;
stroke-linejoin:miter; stroke-linecap:butt;
"/>
<!-- Line -->
<polyline points="86020,17410
86020,18460
" style="stroke:#000000;stroke-width:70;
stroke-linejoin:miter; stroke-linecap:butt;
"/>
<!-- Line -->
<polyline points="92450,32940
92450,31890
" style="stroke:#000000;stroke-width:70;
stroke-linejoin:miter; stroke-linecap:butt;
"/>
<!-- Line -->
<polyline points="92450,17410
92450,18460
" style="stroke:#000000;stroke-width:70;
stroke-linejoin:miter; stroke-linecap:butt;
"/>
<!-- Line -->
<polyline points="98870,32940
98870,31890
" style="stroke:#000000;stroke-width:70;
stroke-linejoin:miter; stroke-linecap:butt;
"/>
<!-- Line -->
<polyline points="98870,17410
98870,18460
" style="stroke:#000000;stroke-width:70;
stroke-linejoin:miter; stroke-linecap:butt;
"/>
<!-- Line -->
<polyline points="66750,17410
66750,32940
98870,32940
98870,17410
66750,17410
" style="stroke:#000000;stroke-width:70;
stroke-linejoin:miter; stroke-linecap:butt;
"/>
<!-- Line -->
<!--  End plot #1  -->
<polyline points="24480,54510
25530,54510
" style="stroke:#000000;stroke-width:70;
stroke-linejoin:miter; stroke-linecap:butt;
"/>
<!-- Line -->
<polyline points="56600,54510
55550,54510
" style="stroke:#000000;stroke-width:70;
stroke-linejoin:miter; stroke-linecap:butt;
"/>
<!-- Line -->
<polyline points="24480,51400
25530,51400
" style="stroke:#000000;stroke-width:70;
stroke-linejoin:miter; stroke-linecap:butt;
"/>
<!-- Line -->
<polyline points="56600,51400
55550,51400
" style="stroke:#000000;stroke-width:70;
stroke-linejoin:miter; stroke-linecap:butt;
"/>
<!-- Line -->
<polyline points="24480,48300
25530,48300
" style="stroke:#000000;stroke-width:70;
stroke-linejoin:miter; stroke-linecap:butt;
"/>
<!-- Line -->
<polyline points="56600,48300
55550,48300
" style="stroke:#000000;stroke-width:70;
stroke-linejoin:miter; stroke-linecap:butt;
"/>
<!-- Line -->
<polyline points="24480,45190
25530,45190
" style="stroke:#000000;stroke-width:70;
stroke-linejoin:miter; stroke-linecap:butt;
"/>
<!-- Line -->
<polyline points="56600,45190
55550,45190
" style="stroke:#000000;stroke-width:70;
stroke-linejoin:miter; stroke-linecap:butt;
"/>
<!-- Line -->
<polyline points="24480,42090
25530,42090
" style="stroke:#000000;stroke-width:70;
stroke-linejoin:miter; stroke-linecap:butt;
"/>
<!-- Line -->
<polyline points="56600,42090
55550,42090
" style="stroke:#000000;stroke-width:70;
stroke-linejoin:miter; stroke-linecap:butt;
"/>
<!-- Line -->
<polyline points="24480,38980
25530,38980
" style="stroke:#000000;stroke-width:70;
stroke-linejoin:miter; stroke-linecap:butt;
"/>
<!-- Line -->
<polyline points="56600,38980
55550,38980
" style="stroke:#000000;stroke-width:70;
stroke-linejoin:miter; stroke-linecap:butt;
"/>
<!-- Line -->
<polyline points="24480,54510
24480,53460
" style="stroke:#000000;stroke-width:70;
stroke-linejoin:miter; stroke-linecap:butt;
"/>
<!-- Line -->
<polyline points="24480,38980
24480,40030
" style="stroke:#000000;stroke-width:70;
stroke-linejoin:miter; stroke-linecap:butt;
"/>
<!-- Line -->
<polyline points="30900,54510
30900,53460
" style="stroke:#000000;stroke-width:70;
stroke-linejoin:miter; stroke-linecap:butt;
"/>
<!-- Line -->
<polyline points="30900,38980
30900,40030
" style="stroke:#000000;stroke-width:70;
stroke-linejoin:miter; stroke-linecap:butt;
"/>
<!-- Line -->
<polyline points="37330,54510
37330,53460
" style="stroke:#000000;stroke-width:70;
stroke-linejoin:miter; stroke-linecap:butt;
"/>
<!-- Line -->
<polyline points="37330,38980
37330,40030
" style="stroke:#000000;stroke-width:70;
stroke-linejoin:miter; stroke-linecap:butt;
"/>
<!-- Line -->
<polyline points="43750,54510
43750,53460
" style="stroke:#000000;stroke-width:70;
stroke-linejoin:miter; stroke-linecap:butt;
"/>
<!-- Line -->
<polyline points="43750,38980
43750,40030
" style="stroke:#000000;stroke-width:70;
stroke-linejoin:miter; stroke-linecap:butt;
"/>
<!-- Line -->
<polyline points="50180,54510
50180,53460
" style="stroke:#000000;stroke-width:70;
stroke-linejoin:miter; stroke-linecap:butt;
"/>
<!-- Line -->
<polyline points="50180,38980
50180,40030
" style="stroke:#000000;stroke-width:70;
stroke-linejoin:miter; stroke-linecap:butt;
"/>
<!-- Line -->
<polyline points="56600,54510
56600,53460
" style="stroke:#000000;stroke-width:70;
stroke-linejoin:miter; stroke-linecap:butt;
"/>
<!-- Line -->
<polyline points="56600,38980
56600,40030
" style="stroke:#000000;stroke-width:70;
stroke-linejoin:miter; stroke-linecap:butt;
"/>
<!-- Line -->
<polyline points="24480,38980
24480,54510
56600,54510
56600,38980
24480,38980
" style="stroke:#000000;stroke-width:70;
stroke-linejoin:miter; stroke-linecap:butt;
"/>
<!-- Line -->
<!--  End plot #1  -->
<polyline points="66750,54510
67800,54510
" style="stroke:#000000;stroke-width:70;
stroke-linejoin:miter; stroke-linecap:butt;
"/>
<!-- Line -->
<polyline points="98870,54510
97820,54510
" style="stroke:#000000;stroke-width:70;
stroke-linejoin:miter; stroke-linecap:butt;
"/>
<!-- Line -->
<polyline points="66750,51900
67800,51900
" style="stroke:#000000;stroke-width:70;
stroke-linejoin:miter; stroke-linecap:butt;
"/>
<!-- Line -->
<polyline points="98870,51900
97820,51900
" style="stroke:#000000;stroke-width:70;
stroke-linejoin:miter; stroke-linecap:butt;
"/>
<!-- Line -->
<polyline points="66750,49290
67800,49290
" style="stroke:#000000;stroke-width:70;
stroke-linejoin:miter; stroke-linecap:butt;
"/>
<!-- Line -->
<polyline points="98870,49290
97820,49290
" style="stroke:#000000;stroke-width:70;
stroke-linejoin:miter; stroke-linecap:butt;
"/>
<!-- Line -->
<polyline points="66750,46680
67800,46680
" style="stroke:#000000;stroke-width:70;
stroke-linejoin:miter; stroke-linecap:butt;
"/>
<!-- Line -->
<polyline points="98870,46680
97820,46680
" style="stroke:#000000;stroke-width:70;
stroke-linejoin:miter; stroke-linecap:butt;
"/>
<!-- Line -->
<polyline points="66750,44070
67800,44070
" style="stroke:#000000;stroke-width:70;
stroke-linejoin:miter; stroke-linecap:butt;
"/>
<!-- Line -->
<polyline points="98870,44070
97820,44070
" style="stroke:#000000;stroke-width:70;
stroke-linejoin:miter; stroke-linecap:butt;
"/>
<!-- Line -->
<polyline points="66750,41460
67800,41460
" style="stroke:#000000;stroke-width:70;
stroke-linejoin:miter; stroke-linecap:butt;
"/>
<!-- Line -->
<polyline points="98870,41460
97820,41460
" style="stroke:#000000;stroke-width:70;
stroke-linejoin:miter; stroke-linecap:butt;
"/>
<!-- Line -->
<polyline points="66750,54510
66750,53460
" style="stroke:#000000;stroke-width:70;
stroke-linejoin:miter; stroke-linecap:butt;
"/>
<!-- Line -->
<polyline points="66750,38980
66750,40030
" style="stroke:#000000;stroke-width:70;
stroke-linejoin:miter; stroke-linecap:butt;
"/>
<!-- Line -->
<polyline points="73170,54510
73170,53460
" style="stroke:#000000;stroke-width:70;
stroke-linejoin:miter; stroke-linecap:butt;
"/>
<!-- Line -->
<polyline points="73170,38980
73170,40030
" style="stroke:#000000;stroke-width:70;
stroke-linejoin:miter; stroke-linecap:butt;
"/>
<!-- Line -->
<polyline points="79600,54510
79600,53460
" style="stroke:#000000;stroke-width:70;
stroke-linejoin:miter; stroke-linecap:butt;
"/>
<!-- Line -->
<polyline points="79600,38980
79600,40030
" style="stroke:#000000;stroke-width:70;
stroke-linejoin:miter; stroke-linecap:butt;
"/>
<!-- Line -->
<polyline points="86020,54510
86020,53460
" style="stroke:#000000;stroke-width:70;
stroke-linejoin:miter; stroke-linecap:butt;
"/>
<!-- Line -->
<polyline points="86020,38980
86020,40030
" style="stroke:#000000;stroke-width:70;
stroke-linejoin:miter; stroke-linecap:butt;
"/>
<!-- Line -->
<polyline points="92450,54510
92450,53460
" style="stroke:#000000;stroke-width:70;
stroke-linejoin:miter; stroke-linecap:butt;
"/>
<!-- Line -->
<polyline points="92450,38980
92450,40030
" style="stroke:#000000;stroke-width:70;
stroke-linejoin:miter; stroke-linecap:butt;
"/>
<!-- Line -->
<polyline points="98870,54510
98870,53460
" style="stroke:#000000;stroke-width:70;
stroke-linejoin:miter; stroke-linecap:butt;
"/>
<!-- Line -->
<polyline points="98870,38980
98870,40030
" style="stroke:#000000;stroke-width:70;
stroke-linejoin:miter; stroke-linecap:butt;
"/>
<!-- Line -->
<polyline points="66750,38980
66750,54510
98870,54510
98870,38980
66750,38980
" style="stroke:#000000;stroke-width:70;
stroke-linejoin:miter; stroke-linecap:butt;
"/>
<!-- Line -->
<!--  End plot #1  -->
<polyline points="24480,76080
25530,76080
" style="stroke:#000000;stroke-width:70;
stroke-linejoin:miter; stroke-linecap:butt;
"/>
<!-- Line -->
<polyline points="56600,76080
55550,76080
" style="stroke:#000000;stroke-width:70;
stroke-linejoin:miter; stroke-linecap:butt;
"/>
<!-- Line -->
<polyline points="24480,72980
25530,72980
" style="stroke:#000000;stroke-width:70;
stroke-linejoin:miter; stroke-linecap:butt;
"/>
<!-- Line -->
<polyline points="56600,72980
55550,72980
" style="stroke:#000000;stroke-width:70;
stroke-linejoin:miter; stroke-linecap:butt;
"/>
<!-- Line -->
<polyline points="24480,69870
25530,69870
" style="stroke:#000000;stroke-width:70;
stroke-linejoin:miter; stroke-linecap:butt;
"/>
<!-- Line -->
<polyline points="56600,69870
55550,69870
" style="stroke:#000000;stroke-width:70;
stroke-linejoin:miter; stroke-linecap:butt;
"/>
<!-- Line -->
<polyline points="24480,66770
25530,66770
" style="stroke:#000000;stroke-width:70;
stroke-linejoin:miter; stroke-linecap:butt;
"/>
<!-- Line -->
<polyline points="56600,66770
55550,66770
" style="stroke:#000000;stroke-width:70;
stroke-linejoin:miter; stroke-linecap:butt;
"/>
<!-- Line -->
<polyline points="24480,63660
25530,63660
" style="stroke:#000000;stroke-width:70;
stroke-linejoin:miter; stroke-linecap:butt;
"/>
<!-- Line -->
<polyline points="56600,63660
55550,63660
" style="stroke:#000000;stroke-width:70;
stroke-linejoin:miter; stroke-linecap:butt;
"/>
<!-- Line -->
<polyline points="24480,60560
25530,60560
" style="stroke:#000000;stroke-width:70;
stroke-linejoin:miter; stroke-linecap:butt;
"/>
<!-- Line -->
<polyline points="56600,60560
55550,60560
" style="stroke:#000000;stroke-width:70;
stroke-linejoin:miter; stroke-linecap:butt;
"/>
<!-- Line -->
<polyline points="24480,76080
24480,75030
" style="stroke:#000000;stroke-width:70;
stroke-linejoin:miter; stroke-linecap:butt;
"/>
<!-- Line -->
<polyline points="24480,60560
24480,61610
" style="stroke:#000000;stroke-width:70;
stroke-linejoin:miter; stroke-linecap:butt;
"/>
<!-- Line -->
<polyline points="30900,76080
30900,75030
" style="stroke:#000000;stroke-width:70;
stroke-linejoin:miter; stroke-linecap:butt;
"/>
<!-- Line -->
<polyline points="30900,60560
30900,61610
" style="stroke:#000000;stroke-width:70;
stroke-linejoin:miter; stroke-linecap:butt;
"/>
<!-- Line -->
<polyline points="37330,76080
37330,75030
" style="stroke:#000000;stroke-width:70;
stroke-linejoin:miter; stroke-linecap:butt;
"/>
<!-- Line -->
<polyline points="37330,60560
37330,61610
" style="stroke:#000000;stroke-width:70;
stroke-linejoin:miter; stroke-linecap:butt;
"/>
<!-- Line -->
<polyline points="43750,76080
43750,75030
" style="stroke:#000000;stroke-width:70;
stroke-linejoin:miter; stroke-linecap:butt;
"/>
<!-- Line -->
<polyline points="43750,60560
43750,61610
" style="stroke:#000000;stroke-width:70;
stroke-linejoin:miter; stroke-linecap:butt;
"/>
<!-- Line -->
<polyline points="50180,76080
50180,75030
" style="stroke:#000000;stroke-width:70;
stroke-linejoin:miter; stroke-linecap:butt;
"/>
<!-- Line -->
<polyline points="50180,60560
50180,61610
" style="stroke:#000000;stroke-width:70;
stroke-linejoin:miter; stroke-linecap:butt;
"/>
<!-- Line -->
<polyline points="56600,76080
56600,75030
" style="stroke:#000000;stroke-width:70;
stroke-linejoin:miter; stroke-linecap:butt;
"/>
<!-- Line -->
<polyline points="56600,60560
56600,61610
" style="stroke:#000000;stroke-width:70;
stroke-linejoin:miter; stroke-linecap:butt;
"/>
<!-- Line -->
<polyline points="24480,60560
24480,76080
56600,76080
56600,60560
24480,60560
" style="stroke:#000000;stroke-width:70;
stroke-linejoin:miter; stroke-linecap:butt;
"/>
<!-- Line -->
<!--  End plot #1  -->
<polyline points="66750,76080
67800,76080
" style="stroke:#000000;stroke-width:70;
stroke-linejoin:miter; stroke-linecap:butt;
"/>
<!-- Line -->
<polyline points="98870,76080
97820,76080
" style="stroke:#000000;stroke-width:70;
stroke-linejoin:miter; stroke-linecap:butt;
"/>
<!-- Line -->
<polyline points="66750,73470
67800,73470
" style="stroke:#000000;stroke-width:70;
stroke-linejoin:miter; stroke-linecap:butt;
"/>
<!-- Line -->
<polyline points="98870,73470
97820,73470
" style="stroke:#000000;stroke-width:70;
stroke-linejoin:miter; stroke-linecap:butt;
"/>
<!-- Line -->
<polyline points="66750,70860
67800,70860
" style="stroke:#000000;stroke-width:70;
stroke-linejoin:miter; stroke-linecap:butt;
"/>
<!-- Line -->
<polyline points="98870,70860
97820,70860
" style="stroke:#000000;stroke-width:70;
stroke-linejoin:miter; stroke-linecap:butt;
"/>
<!-- Line -->
<polyline points="66750,68250
67800,68250
" style="stroke:#000000;stroke-width:70;
stroke-linejoin:miter; stroke-linecap:butt;
"/>
<!-- Line -->
<polyline points="98870,68250
97820,68250
" style="stroke:#000000;stroke-width:70;
stroke-linejoin:miter; stroke-linecap:butt;
"/>
<!-- Line -->
<polyline points="66750,65650
67800,65650
" style="stroke:#000000;stroke-width:70;
stroke-linejoin:miter; stroke-linecap:butt;
"/>
<!-- Line -->
<polyline points="98870,65650
97820,65650
" style="stroke:#000000;stroke-width:70;
stroke-linejoin:miter; stroke-linecap:butt;
"/>
<!-- Line -->
<polyline points="66750,63040
67800,63040
" style="stroke:#000000;stroke-width:70;
stroke-linejoin:miter; stroke-linecap:butt;
"/>
<!-- Line -->
<polyline points="98870,63040
97820,63040
" style="stroke:#000000;stroke-width:70;
stroke-linejoin:miter; stroke-linecap:butt;
"/>
<!-- Line -->
<polyline points="66750,76080
66750,75030
" style="stroke:#000000;stroke-width:70;
stroke-linejoin:miter; stroke-linecap:butt;
"/>
<!-- Line -->
<polyline points="66750,60560
66750,61610
" style="stroke:#000000;stroke-width:70;
stroke-linejoin:miter; stroke-linecap:butt;
"/>
<!-- Line -->
<polyline points="73170,76080
73170,75030
" style="stroke:#000000;stroke-width:70;
stroke-linejoin:miter; stroke-linecap:butt;
"/>
<!-- Line -->
<polyline points="73170,60560
73170,61610
" style="stroke:#000000;stroke-width:70;
stroke-linejoin:miter; stroke-linecap:butt;
"/>
<!-- Line -->
<polyline points="79600,76080
79600,75030
" style="stroke:#000000;stroke-width:70;
stroke-linejoin:miter; stroke-linecap:butt;
"/>
<!-- Line -->
<polyline points="79600,60560
79600,61610
" style="stroke:#000000;stroke-width:70;
stroke-linejoin:miter; stroke-linecap:butt;
"/>
<!-- Line -->
<polyline points="86020,76080
86020,75030
" style="stroke:#000000;stroke-width:70;
stroke-linejoin:miter; stroke-linecap:butt;
"/>
<!-- Line -->
<polyline points="86020,60560
86020,61610
" style="stroke:#000000;stroke-width:70;
stroke-linejoin:miter; stroke-linecap:butt;
"/>
<!-- Line -->
<polyline points="92450,76080
92450,75030
" style="stroke:#000000;stroke-width:70;
stroke-linejoin:miter; stroke-linecap:butt;
"/>
<!-- Line -->
<polyline points="92450,60560
92450,61610
" style="stroke:#000000;stroke-width:70;
stroke-linejoin:miter; stroke-linecap:butt;
"/>
<!-- Line -->
<polyline points="98870,76080
98870,75030
" style="stroke:#000000;stroke-width:70;
stroke-linejoin:miter; stroke-linecap:butt;
"/>
<!-- Line -->
<polyline points="98870,60560
98870,61610
" style="stroke:#000000;stroke-width:70;
stroke-linejoin:miter; stroke-linecap:butt;
"/>
<!-- Line -->
<polyline points="66750,60560
66750,76080
98870,76080
98870,60560
66750,60560
" style="stroke:#000000;stroke-width:70;
stroke-linejoin:miter; stroke-linecap:butt;
"/>
<!-- Text -->
<!--  Begin plot #1  -->
<text xml:space="preserve" x="50600" y="19400" fill="#000000"  font-family="Times" font-style="normal" font-weight="normal" font-size="1200" text-anchor="end">RMSE</text>
<!-- Text -->
<!--  Begin plot #1  -->
<text xml:space="preserve" x="92870" y="19400" fill="#000000"  font-family="Times" font-style="normal" font-weight="normal" font-size="1200" text-anchor="end">penalty</text>
<!-- Text -->
<!--  Begin plot #1  -->
<text xml:space="preserve" x="50600" y="40970" fill="#000000"  font-family="Times" font-style="normal" font-weight="normal" font-size="1200" text-anchor="end">nForward</text>
<!-- Text -->
<!--  Begin plot #1  -->
<text xml:space="preserve" x="92870" y="40970" fill="#000000"  font-family="Times" font-style="normal" font-weight="normal" font-size="1200" text-anchor="end">de/dw influence [%]</text>
<!-- Text -->
<!--  Begin plot #1  -->
<text xml:space="preserve" x="50600" y="62550" fill="#000000"  font-family="Times" font-style="normal" font-weight="normal" font-size="1200" text-anchor="end">nBackward</text>
<!-- Text -->
<!--  Begin plot #1  -->
<text xml:space="preserve" x="92870" y="62550" fill="#000000"  font-family="Times" font-style="normal" font-weight="normal" font-size="1200" text-anchor="end">dp/dw influence [%]</text>
<!-- Text -->
<text xml:space="preserve" x="23730" y="33340" fill="#000000"  font-family="Times" font-style="normal" font-weight="normal" font-size="1200" text-anchor="end">8</text>
<!-- Text -->
<text xml:space="preserve" x="23730" y="30670" fill="#000000"  font-family="Times" font-style="normal" font-weight="normal" font-size="1200" text-anchor="end">9</text>
<!-- Text -->
<text xml:space="preserve" x="23730" y="28000" fill="#000000"  font-family="Times" font-style="normal" font-weight="normal" font-size="1200" text-anchor="end">10</text>
<!-- Text -->
<text xml:space="preserve" x="23730" y="25320" fill="#000000"  font-family="Times" font-style="normal" font-weight="normal" font-size="1200" text-anchor="end">11</text>
<!-- Text -->
<text xml:space="preserve" x="23730" y="22650" fill="#000000"  font-family="Times" font-style="normal" font-weight="normal" font-size="1200" text-anchor="end">12</text>
<!-- Text -->
<text xml:space="preserve" x="23730" y="19980" fill="#000000"  font-family="Times" font-style="normal" font-weight="normal" font-size="1200" text-anchor="end">13</text>
<!-- Text -->
<text xml:space="preserve" x="24480" y="34810" fill="#000000"  font-family="Times" font-style="normal" font-weight="normal" font-size="1200" text-anchor="middle">0</text>
<!-- Text -->
<text xml:space="preserve" x="30900" y="34810" fill="#000000"  font-family="Times" font-style="normal" font-weight="normal" font-size="1200" text-anchor="middle">10</text>
<!-- Text -->
<text xml:space="preserve" x="37330" y="34810" fill="#000000"  font-family="Times" font-style="normal" font-weight="normal" font-size="1200" text-anchor="middle">20</text>
<!-- Text -->
<text xml:space="preserve" x="43750" y="34810" fill="#000000"  font-family="Times" font-style="normal" font-weight="normal" font-size="1200" text-anchor="middle">30</text>
<!-- Text -->
<text xml:space="preserve" x="50180" y="34810" fill="#000000"  font-family="Times" font-style="normal" font-weight="normal" font-size="1200" text-anchor="middle">40</text>
<!-- Text -->
<text xml:space="preserve" x="56600" y="34810" fill="#000000"  font-family="Times" font-style="normal" font-weight="normal" font-size="1200" text-anchor="middle">50</text>
<!-- Text -->
<text xml:space="preserve" x="66000" y="33560" fill="#000000"  font-family="Times" font-style="normal" font-weight="normal" font-size="1200" text-anchor="end">-0.2</text>
<!-- Text -->
<text xml:space="preserve" x="66000" y="31340" fill="#000000"  font-family="Times" font-style="normal" font-weight="normal" font-size="1200" text-anchor="end">0</text>
<!-- Text -->
<text xml:space="preserve" x="66000" y="29120" fill="#000000"  font-family="Times" font-style="normal" font-weight="normal" font-size="1200" text-anchor="end">0.2</text>
<!-- Text -->
<text xml:space="preserve" x="66000" y="26900" fill="#000000"  font-family="Times" font-style="normal" font-weight="normal" font-size="1200" text-anchor="end">0.4</text>
<!-- Text -->
<text xml:space="preserve" x="66000" y="24690" fill="#000000"  font-family="Times" font-style="normal" font-weight="normal" font-size="1200" text-anchor="end">0.6</text>
<!-- Text -->
<text xml:space="preserve" x="66000" y="22470" fill="#000000"  font-family="Times" font-style="normal" font-weight="normal" font-size="1200" text-anchor="end">0.8</text>
<!-- Text -->
<text xml:space="preserve" x="66000" y="20250" fill="#000000"  font-family="Times" font-style="normal" font-weight="normal" font-size="1200" text-anchor="end">1</text>
<!-- Text -->
<text xml:space="preserve" x="66000" y="18030" fill="#000000"  font-family="Times" font-style="normal" font-weight="normal" font-size="1200" text-anchor="end">1.2</text>
<!-- Text -->
<text xml:space="preserve" x="66750" y="34810" fill="#000000"  font-family="Times" font-style="normal" font-weight="normal" font-size="1200" text-anchor="middle">0</text>
<!-- Text -->
<text xml:space="preserve" x="73170" y="34810" fill="#000000"  font-family="Times" font-style="normal" font-weight="normal" font-size="1200" text-anchor="middle">10</text>
<!-- Text -->
<text xml:space="preserve" x="79600" y="34810" fill="#000000"  font-family="Times" font-style="normal" font-weight="normal" font-size="1200" text-anchor="middle">20</text>
<!-- Text -->
<text xml:space="preserve" x="86020" y="34810" fill="#000000"  font-family="Times" font-style="normal" font-weight="normal" font-size="1200" text-anchor="middle">30</text>
<!-- Text -->
<text xml:space="preserve" x="92450" y="34810" fill="#000000"  font-family="Times" font-style="normal" font-weight="normal" font-size="1200" text-anchor="middle">40</text>
<!-- Text -->
<text xml:space="preserve" x="98870" y="34810" fill="#000000"  font-family="Times" font-style="normal" font-weight="normal" font-size="1200" text-anchor="middle">50</text>
<!-- Text -->
<text xml:space="preserve" x="23730" y="55130" fill="#000000"  font-family="Times" font-style="normal" font-weight="normal" font-size="1200" text-anchor="end">0</text>
<!-- Text -->
<text xml:space="preserve" x="23730" y="52020" fill="#000000"  font-family="Times" font-style="normal" font-weight="normal" font-size="1200" text-anchor="end">50</text>
<!-- Text -->
<text xml:space="preserve" x="23730" y="48920" fill="#000000"  font-family="Times" font-style="normal" font-weight="normal" font-size="1200" text-anchor="end">100</text>
<!-- Text -->
<text xml:space="preserve" x="23730" y="45810" fill="#000000"  font-family="Times" font-style="normal" font-weight="normal" font-size="1200" text-anchor="end">150</text>
<!-- Text -->
<text xml:space="preserve" x="23730" y="42710" fill="#000000"  font-family="Times" font-style="normal" font-weight="normal" font-size="1200" text-anchor="end">200</text>
<!-- Text -->
<text xml:space="preserve" x="23730" y="39600" fill="#000000"  font-family="Times" font-style="normal" font-weight="normal" font-size="1200" text-anchor="end">250</text>
<!-- Text -->
<text xml:space="preserve" x="24480" y="56380" fill="#000000"  font-family="Times" font-style="normal" font-weight="normal" font-size="1200" text-anchor="middle">0</text>
<!-- Text -->
<text xml:space="preserve" x="30900" y="56380" fill="#000000"  font-family="Times" font-style="normal" font-weight="normal" font-size="1200" text-anchor="middle">10</text>
<!-- Text -->
<text xml:space="preserve" x="37330" y="56380" fill="#000000"  font-family="Times" font-style="normal" font-weight="normal" font-size="1200" text-anchor="middle">20</text>
<!-- Text -->
<text xml:space="preserve" x="43750" y="56380" fill="#000000"  font-family="Times" font-style="normal" font-weight="normal" font-size="1200" text-anchor="middle">30</text>
<!-- Text -->
<text xml:space="preserve" x="50180" y="56380" fill="#000000"  font-family="Times" font-style="normal" font-weight="normal" font-size="1200" text-anchor="middle">40</text>
<!-- Text -->
<text xml:space="preserve" x="56600" y="56380" fill="#000000"  font-family="Times" font-style="normal" font-weight="normal" font-size="1200" text-anchor="middle">50</text>
<!-- Text -->
<text xml:space="preserve" x="66000" y="55130" fill="#000000"  font-family="Times" font-style="normal" font-weight="normal" font-size="1200" text-anchor="end">0</text>
<!-- Text -->
<text xml:space="preserve" x="66000" y="52520" fill="#000000"  font-family="Times" font-style="normal" font-weight="normal" font-size="1200" text-anchor="end">20</text>
<!-- Text -->
<text xml:space="preserve" x="66000" y="49910" fill="#000000"  font-family="Times" font-style="normal" font-weight="normal" font-size="1200" text-anchor="end">40</text>
<!-- Text -->
<text xml:space="preserve" x="66000" y="47300" fill="#000000"  font-family="Times" font-style="normal" font-weight="normal" font-size="1200" text-anchor="end">60</text>
<!-- Text -->
<text xml:space="preserve" x="66000" y="44690" fill="#000000"  font-family="Times" font-style="normal" font-weight="normal" font-size="1200" text-anchor="end">80</text>
<!-- Text -->
<text xml:space="preserve" x="66000" y="42080" fill="#000000"  font-family="Times" font-style="normal" font-weight="normal" font-size="1200" text-anchor="end">100</text>
<!-- Text -->
<text xml:space="preserve" x="66750" y="56380" fill="#000000"  font-family="Times" font-style="normal" font-weight="normal" font-size="1200" text-anchor="middle">0</text>
<!-- Text -->
<text xml:space="preserve" x="73170" y="56380" fill="#000000"  font-family="Times" font-style="normal" font-weight="normal" font-size="1200" text-anchor="middle">10</text>
<!-- Text -->
<text xml:space="preserve" x="79600" y="56380" fill="#000000"  font-family="Times" font-style="normal" font-weight="normal" font-size="1200" text-anchor="middle">20</text>
<!-- Text -->
<text xml:space="preserve" x="86020" y="56380" fill="#000000"  font-family="Times" font-style="normal" font-weight="normal" font-size="1200" text-anchor="middle">30</text>
<!-- Text -->
<text xml:space="preserve" x="92450" y="56380" fill="#000000"  font-family="Times" font-style="normal" font-weight="normal" font-size="1200" text-anchor="middle">40</text>
<!-- Text -->
<text xml:space="preserve" x="98870" y="56380" fill="#000000"  font-family="Times" font-style="normal" font-weight="normal" font-size="1200" text-anchor="middle">50</text>
<!-- Text -->
<text xml:space="preserve" x="23730" y="76700" fill="#000000"  font-family="Times" font-style="normal" font-weight="normal" font-size="1200" text-anchor="end">0</text>
<!-- Text -->
<text xml:space="preserve" x="23730" y="73600" fill="#000000"  font-family="Times" font-style="normal" font-weight="normal" font-size="1200" text-anchor="end">50</text>
<!-- Text -->
<text xml:space="preserve" x="23730" y="70490" fill="#000000"  font-family="Times" font-style="normal" font-weight="normal" font-size="1200" text-anchor="end">100</text>
<!-- Text -->
<text xml:space="preserve" x="23730" y="67390" fill="#000000"  font-family="Times" font-style="normal" font-weight="normal" font-size="1200" text-anchor="end">150</text>
<!-- Text -->
<text xml:space="preserve" x="23730" y="64280" fill="#000000"  font-family="Times" font-style="normal" font-weight="normal" font-size="1200" text-anchor="end">200</text>
<!-- Text -->
<text xml:space="preserve" x="23730" y="61180" fill="#000000"  font-family="Times" font-style="normal" font-weight="normal" font-size="1200" text-anchor="end">250</text>
<!-- Text -->
<text xml:space="preserve" x="24480" y="77950" fill="#000000"  font-family="Times" font-style="normal" font-weight="normal" font-size="1200" text-anchor="middle">0</text>
<!-- Text -->
<text xml:space="preserve" x="30900" y="77950" fill="#000000"  font-family="Times" font-style="normal" font-weight="normal" font-size="1200" text-anchor="middle">10</text>
<!-- Text -->
<text xml:space="preserve" x="37330" y="77950" fill="#000000"  font-family="Times" font-style="normal" font-weight="normal" font-size="1200" text-anchor="middle">20</text>
<!-- Text -->
<text xml:space="preserve" x="43750" y="77950" fill="#000000"  font-family="Times" font-style="normal" font-weight="normal" font-size="1200" text-anchor="middle">30</text>
<!-- Text -->
<text xml:space="preserve" x="50180" y="77950" fill="#000000"  font-family="Times" font-style="normal" font-weight="normal" font-size="1200" text-anchor="middle">40</text>
<!-- Text -->
<text xml:space="preserve" x="56600" y="77950" fill="#000000"  font-family="Times" font-style="normal" font-weight="normal" font-size="1200" text-anchor="middle">50</text>
<!-- Text -->
<text xml:space="preserve" x="66000" y="76700" fill="#000000"  font-family="Times" font-style="normal" font-weight="normal" font-size="1200" text-anchor="end">0</text>
<!-- Text -->
<text xml:space="preserve" x="66000" y="74090" fill="#000000"  font-family="Times" font-style="normal" font-weight="normal" font-size="1200" text-anchor="end">20</text>
<!-- Text -->
<text xml:space="preserve" x="66000" y="71480" fill="#000000"  font-family="Times" font-style="normal" font-weight="normal" font-size="1200" text-anchor="end">40</text>
<!-- Text -->
<text xml:space="preserve" x="66000" y="68870" fill="#000000"  font-family="Times" font-style="normal" font-weight="normal" font-size="1200" text-anchor="end">60</text>
<!-- Text -->
<text xml:space="preserve" x="66000" y="66270" fill="#000000"  font-family="Times" font-style="normal" font-weight="normal" font-size="1200" text-anchor="end">80</text>
<!-- Text -->
<text xml:space="preserve" x="66000" y="63660" fill="#000000"  font-family="Times" font-style="normal" font-weight="normal" font-size="1200" text-anchor="end">100</text>
<!-- Text -->
<text xml:space="preserve" x="66750" y="77950" fill="#000000"  font-family="Times" font-style="normal" font-weight="normal" font-size="1200" text-anchor="middle">0</text>
<!-- Text -->
<text xml:space="preserve" x="73170" y="77950" fill="#000000"  font-family="Times" font-style="normal" font-weight="normal" font-size="1200" text-anchor="middle">10</text>
<!-- Text -->
<text xml:space="preserve" x="79600" y="77950" fill="#000000"  font-family="Times" font-style="normal" font-weight="normal" font-size="1200" text-anchor="middle">20</text>
<!-- Text -->
<text xml:space="preserve" x="86020" y="77950" fill="#000000"  font-family="Times" font-style="normal" font-weight="normal" font-size="1200" text-anchor="middle">30</text>
<!-- Text -->
<text xml:space="preserve" x="92450" y="77950" fill="#000000"  font-family="Times" font-style="normal" font-weight="normal" font-size="1200" text-anchor="middle">40</text>
<!-- Text -->
<text xml:space="preserve" x="98870" y="77950" fill="#000000"  font-family="Times" font-style="normal" font-weight="normal" font-size="1200" text-anchor="middle">50</text>
</g>
</svg>
