<?xml version="1.0" standalone="no"?>
<!DOCTYPE svg PUBLIC "-//W3C//DTD SVG 1.1//EN"
"http://www.w3.org/Graphics/SVG/1.1/DTD/svg11.dtd">
<!-- Creator: fig2dev Version 3.2 Patchlevel 5d -->
<!-- CreationDate: Wed May 15 23:25:54 2013 -->
<!-- Magnification: 10.000 -->
<svg	xmlns="http://www.w3.org/2000/svg"
	xmlns:xlink="http://www.w3.org/1999/xlink"
	width="65.9in" height="51.1in"
	viewBox="20810 16830 79130 61270">
<g style="stroke-width:.025in; fill:none">
<!-- Line -->
<polyline points="51350,18780
55100,18780
" style="stroke:#000000;stroke-width:70;
stroke-linejoin:miter; stroke-linecap:butt;
"/>
<!-- Line -->
<polyline points="25120,23950
25760,23810
26410,22830
27050,24250
27690,24490
28330,24370
28980,24450
29620,23740
30260,24450
30900,24350
31550,24200
32190,24510
32830,24720
33470,24280
34120,24360
34760,24360
35400,24400
36040,24380
36690,24270
37330,24290
37970,24310
38610,24330
39260,24370
39900,24450
40540,24470
41180,24500
41820,24490
42470,24580
43110,24630
43750,24780
44390,24810
45040,24860
45680,24970
46320,25040
46960,25000
47610,25040
48250,25160
48890,25240
49530,25240
50180,25290
50820,25450
51460,25840
52100,22390
52750,25150
53390,25170
54030,25760
54670,25040
55320,25180
55960,24190
56600,25040
" style="stroke:#000000;stroke-width:70;
stroke-linejoin:miter; stroke-linecap:butt;
"/>
<!-- Line -->
<polyline points="93620,18780
97370,18780
" style="stroke:#000000;stroke-width:70;
stroke-linejoin:miter; stroke-linecap:butt;
"/>
<!-- Line -->
<polyline points="67390,30720
68030,30720
68680,19630
69320,19630
69960,19630
70600,19630
71250,19630
71890,19630
72530,30720
73170,30720
73820,19630
74460,19630
75100,19630
75740,19630
76390,30720
77030,30720
77670,30720
78310,30720
78960,30720
79600,30720
80240,30720
80880,30720
81530,19630
82170,19630
82810,19630
83450,30720
84090,19630
84740,19630
85380,30720
86020,19630
86660,19630
87310,19630
87950,19630
88590,30720
89230,30720
89880,30720
90520,30720
91160,30720
91800,30720
92450,30720
93090,30720
93730,19630
94370,19630
95020,19630
95660,19630
96300,19630
96940,19630
97590,19630
98230,19630
98870,19630
" style="stroke:#000000;stroke-width:70;
stroke-linejoin:miter; stroke-linecap:butt;
"/>
<!-- Line -->
<polyline points="51350,40350
55100,40350
" style="stroke:#000000;stroke-width:70;
stroke-linejoin:miter; stroke-linecap:butt;
"/>
<!-- Line -->
<polyline points="25120,53580
25760,53640
26410,53210
27050,52710
27690,52830
28330,47680
28980,51280
29620,51530
30260,52210
30900,51470
31550,42020
32190,42020
32830,42020
33470,42020
34120,42020
34760,42020
35400,42020
36040,42020
36690,50040
37330,52340
37970,52960
38610,53080
39260,52340
39900,42020
40540,51900
41180,53080
41820,52400
42470,53020
43110,52400
43750,52960
44390,52270
45040,53020
45680,52340
46320,52030
46960,52520
47610,52580
48250,53020
48890,53210
49530,53390
50180,53640
50820,53640
51460,53390
52100,42020
52750,50040
53390,42020
54030,42020
54670,42020
55320,42020
55960,42020
56600,42020
" style="stroke:#000000;stroke-width:70;
stroke-linejoin:miter; stroke-linecap:butt;
"/>
<!-- Line -->
<polyline points="93620,40350
97370,40350
" style="stroke:#000000;stroke-width:70;
stroke-linejoin:miter; stroke-linecap:butt;
"/>
<!-- Line -->
<polyline points="67390,41460
68030,41460
68680,43550
69320,48120
69960,49160
70600,47200
71250,44460
71890,45770
72530,41460
73170,41460
73820,44850
74460,45370
75100,47070
75740,43940
76390,41460
77030,41460
77670,41460
78310,41460
78960,41460
79600,41460
80240,41460
80880,41460
81530,42900
82170,47070
82810,46550
83450,41460
84090,46810
84740,45770
85380,41460
86020,45900
86660,46550
87310,43680
87950,44200
88590,41460
89230,41460
89880,41460
90520,41460
91160,41460
91800,41460
92450,41460
93090,41460
93730,44200
94370,43680
95020,45900
95660,42900
96300,46810
96940,43290
97590,43160
98230,43160
98870,44070
" style="stroke:#000000;stroke-width:70;
stroke-linejoin:miter; stroke-linecap:butt;
"/>
<!-- Line -->
<polyline points="51350,61930
55100,61930
" style="stroke:#000000;stroke-width:70;
stroke-linejoin:miter; stroke-linecap:butt;
"/>
<!-- Line -->
<polyline points="25120,75520
25760,75400
26410,75020
27050,74780
27690,74590
28330,70370
28980,73780
29620,73910
30260,74280
30900,73470
31550,63600
32190,63600
32830,63600
33470,63600
34120,63600
34760,63600
35400,63600
36040,63600
36690,72600
37330,74280
37970,74900
38610,75020
39260,74470
39900,65770
40540,74220
41180,75090
41820,74710
42470,75020
43110,74590
43750,74900
44390,74470
45040,74960
45680,74400
46320,74280
46960,74530
47610,74590
48250,74840
48890,75150
49530,75270
50180,75460
50820,75520
51460,75150
52100,63600
52750,69000
53390,63600
54030,71110
54670,63600
55320,63600
55960,63600
56600,63600
" style="stroke:#000000;stroke-width:70;
stroke-linejoin:miter; stroke-linecap:butt;
"/>
<!-- Line -->
<polyline points="93620,61930
97370,61930
" style="stroke:#000000;stroke-width:70;
stroke-linejoin:miter; stroke-linecap:butt;
"/>
<!-- Line -->
<polyline points="67390,75170
68030,75170
68680,67860
69320,64340
69960,64210
70600,63170
71250,65120
71890,64860
72530,75170
73170,75170
73820,64210
74460,64730
75100,64730
75740,68120
76390,75170
77030,75170
77670,75170
78310,75170
78960,75170
79600,75170
80240,75170
80880,75170
81530,69560
82170,65120
82810,65120
83450,75170
84090,64210
84740,64470
85380,75170
86020,65120
86660,63820
87310,64860
87950,66820
88590,75170
89230,75170
89880,75170
90520,75170
91160,75170
91800,75170
92450,75170
93090,75170
93730,66170
94370,68650
95020,66820
95660,70730
96300,63430
96940,67470
97590,68390
98230,66170
98870,66430
" style="stroke:#000000;stroke-width:70;
stroke-linejoin:miter; stroke-linecap:butt;
"/>
<!-- Line -->
<polyline points="24480,32570
25530,32570
" style="stroke:#000000;stroke-width:70;
stroke-linejoin:miter; stroke-linecap:butt;
"/>
<!-- Line -->
<polyline points="56600,32570
55550,32570
" style="stroke:#000000;stroke-width:70;
stroke-linejoin:miter; stroke-linecap:butt;
"/>
<!-- Line -->
<polyline points="24480,30720
25530,30720
" style="stroke:#000000;stroke-width:70;
stroke-linejoin:miter; stroke-linecap:butt;
"/>
<!-- Line -->
<polyline points="56600,30720
55550,30720
" style="stroke:#000000;stroke-width:70;
stroke-linejoin:miter; stroke-linecap:butt;
"/>
<!-- Line -->
<polyline points="24480,28870
25530,28870
" style="stroke:#000000;stroke-width:70;
stroke-linejoin:miter; stroke-linecap:butt;
"/>
<!-- Line -->
<polyline points="56600,28870
55550,28870
" style="stroke:#000000;stroke-width:70;
stroke-linejoin:miter; stroke-linecap:butt;
"/>
<!-- Line -->
<polyline points="24480,27020
25530,27020
" style="stroke:#000000;stroke-width:70;
stroke-linejoin:miter; stroke-linecap:butt;
"/>
<!-- Line -->
<polyline points="56600,27020
55550,27020
" style="stroke:#000000;stroke-width:70;
stroke-linejoin:miter; stroke-linecap:butt;
"/>
<!-- Line -->
<polyline points="24480,25170
25530,25170
" style="stroke:#000000;stroke-width:70;
stroke-linejoin:miter; stroke-linecap:butt;
"/>
<!-- Line -->
<polyline points="56600,25170
55550,25170
" style="stroke:#000000;stroke-width:70;
stroke-linejoin:miter; stroke-linecap:butt;
"/>
<!-- Line -->
<polyline points="24480,23330
25530,23330
" style="stroke:#000000;stroke-width:70;
stroke-linejoin:miter; stroke-linecap:butt;
"/>
<!-- Line -->
<polyline points="56600,23330
55550,23330
" style="stroke:#000000;stroke-width:70;
stroke-linejoin:miter; stroke-linecap:butt;
"/>
<!-- Line -->
<polyline points="24480,21480
25530,21480
" style="stroke:#000000;stroke-width:70;
stroke-linejoin:miter; stroke-linecap:butt;
"/>
<!-- Line -->
<polyline points="56600,21480
55550,21480
" style="stroke:#000000;stroke-width:70;
stroke-linejoin:miter; stroke-linecap:butt;
"/>
<!-- Line -->
<polyline points="24480,19630
25530,19630
" style="stroke:#000000;stroke-width:70;
stroke-linejoin:miter; stroke-linecap:butt;
"/>
<!-- Line -->
<polyline points="56600,19630
55550,19630
" style="stroke:#000000;stroke-width:70;
stroke-linejoin:miter; stroke-linecap:butt;
"/>
<!-- Line -->
<polyline points="24480,17780
25530,17780
" style="stroke:#000000;stroke-width:70;
stroke-linejoin:miter; stroke-linecap:butt;
"/>
<!-- Line -->
<polyline points="56600,17780
55550,17780
" style="stroke:#000000;stroke-width:70;
stroke-linejoin:miter; stroke-linecap:butt;
"/>
<!-- Line -->
<polyline points="24480,32940
24480,31890
" style="stroke:#000000;stroke-width:70;
stroke-linejoin:miter; stroke-linecap:butt;
"/>
<!-- Line -->
<polyline points="24480,17410
24480,18460
" style="stroke:#000000;stroke-width:70;
stroke-linejoin:miter; stroke-linecap:butt;
"/>
<!-- Line -->
<polyline points="30900,32940
30900,31890
" style="stroke:#000000;stroke-width:70;
stroke-linejoin:miter; stroke-linecap:butt;
"/>
<!-- Line -->
<polyline points="30900,17410
30900,18460
" style="stroke:#000000;stroke-width:70;
stroke-linejoin:miter; stroke-linecap:butt;
"/>
<!-- Line -->
<polyline points="37330,32940
37330,31890
" style="stroke:#000000;stroke-width:70;
stroke-linejoin:miter; stroke-linecap:butt;
"/>
<!-- Line -->
<polyline points="37330,17410
37330,18460
" style="stroke:#000000;stroke-width:70;
stroke-linejoin:miter; stroke-linecap:butt;
"/>
<!-- Line -->
<polyline points="43750,32940
43750,31890
" style="stroke:#000000;stroke-width:70;
stroke-linejoin:miter; stroke-linecap:butt;
"/>
<!-- Line -->
<polyline points="43750,17410
43750,18460
" style="stroke:#000000;stroke-width:70;
stroke-linejoin:miter; stroke-linecap:butt;
"/>
<!-- Line -->
<polyline points="50180,32940
50180,31890
" style="stroke:#000000;stroke-width:70;
stroke-linejoin:miter; stroke-linecap:butt;
"/>
<!-- Line -->
<polyline points="50180,17410
50180,18460
" style="stroke:#000000;stroke-width:70;
stroke-linejoin:miter; stroke-linecap:butt;
"/>
<!-- Line -->
<polyline points="56600,32940
56600,31890
" style="stroke:#000000;stroke-width:70;
stroke-linejoin:miter; stroke-linecap:butt;
"/>
<!-- Line -->
<polyline points="56600,17410
56600,18460
" style="stroke:#000000;stroke-width:70;
stroke-linejoin:miter; stroke-linecap:butt;
"/>
<!-- Line -->
<polyline points="24480,17410
24480,32940
56600,32940
56600,17410
24480,17410
" style="stroke:#000000;stroke-width:70;
stroke-linejoin:miter; stroke-linecap:butt;
"/>
<!-- Line -->
<!--  End plot #1  -->
<polyline points="66750,32940
67800,32940
" style="stroke:#000000;stroke-width:70;
stroke-linejoin:miter; stroke-linecap:butt;
"/>
<!-- Line -->
<polyline points="98870,32940
97820,32940
" style="stroke:#000000;stroke-width:70;
stroke-linejoin:miter; stroke-linecap:butt;
"/>
<!-- Line -->
<polyline points="66750,30720
67800,30720
" style="stroke:#000000;stroke-width:70;
stroke-linejoin:miter; stroke-linecap:butt;
"/>
<!-- Line -->
<polyline points="98870,30720
97820,30720
" style="stroke:#000000;stroke-width:70;
stroke-linejoin:miter; stroke-linecap:butt;
"/>
<!-- Line -->
<polyline points="66750,28500
67800,28500
" style="stroke:#000000;stroke-width:70;
stroke-linejoin:miter; stroke-linecap:butt;
"/>
<!-- Line -->
<polyline points="98870,28500
97820,28500
" style="stroke:#000000;stroke-width:70;
stroke-linejoin:miter; stroke-linecap:butt;
"/>
<!-- Line -->
<polyline points="66750,26280
67800,26280
" style="stroke:#000000;stroke-width:70;
stroke-linejoin:miter; stroke-linecap:butt;
"/>
<!-- Line -->
<polyline points="98870,26280
97820,26280
" style="stroke:#000000;stroke-width:70;
stroke-linejoin:miter; stroke-linecap:butt;
"/>
<!-- Line -->
<polyline points="66750,24070
67800,24070
" style="stroke:#000000;stroke-width:70;
stroke-linejoin:miter; stroke-linecap:butt;
"/>
<!-- Line -->
<polyline points="98870,24070
97820,24070
" style="stroke:#000000;stroke-width:70;
stroke-linejoin:miter; stroke-linecap:butt;
"/>
<!-- Line -->
<polyline points="66750,21850
67800,21850
" style="stroke:#000000;stroke-width:70;
stroke-linejoin:miter; stroke-linecap:butt;
"/>
<!-- Line -->
<polyline points="98870,21850
97820,21850
" style="stroke:#000000;stroke-width:70;
stroke-linejoin:miter; stroke-linecap:butt;
"/>
<!-- Line -->
<polyline points="66750,19630
67800,19630
" style="stroke:#000000;stroke-width:70;
stroke-linejoin:miter; stroke-linecap:butt;
"/>
<!-- Line -->
<polyline points="98870,19630
97820,19630
" style="stroke:#000000;stroke-width:70;
stroke-linejoin:miter; stroke-linecap:butt;
"/>
<!-- Line -->
<polyline points="66750,17410
67800,17410
" style="stroke:#000000;stroke-width:70;
stroke-linejoin:miter; stroke-linecap:butt;
"/>
<!-- Line -->
<polyline points="98870,17410
97820,17410
" style="stroke:#000000;stroke-width:70;
stroke-linejoin:miter; stroke-linecap:butt;
"/>
<!-- Line -->
<polyline points="66750,32940
66750,31890
" style="stroke:#000000;stroke-width:70;
stroke-linejoin:miter; stroke-linecap:butt;
"/>
<!-- Line -->
<polyline points="66750,17410
66750,18460
" style="stroke:#000000;stroke-width:70;
stroke-linejoin:miter; stroke-linecap:butt;
"/>
<!-- Line -->
<polyline points="73170,32940
73170,31890
" style="stroke:#000000;stroke-width:70;
stroke-linejoin:miter; stroke-linecap:butt;
"/>
<!-- Line -->
<polyline points="73170,17410
73170,18460
" style="stroke:#000000;stroke-width:70;
stroke-linejoin:miter; stroke-linecap:butt;
"/>
<!-- Line -->
<polyline points="79600,32940
79600,31890
" style="stroke:#000000;stroke-width:70;
stroke-linejoin:miter; stroke-linecap:butt;
"/>
<!-- Line -->
<polyline points="79600,17410
79600,18460
" style="stroke:#000000;stroke-width:70;
stroke-linejoin:miter; stroke-linecap:butt;
"/>
<!-- Line -->
<polyline points="86020,32940
86020,31890
" style="stroke:#000000;stroke-width:70;
stroke-linejoin:miter; stroke-linecap:butt;
"/>
<!-- Line -->
<polyline points="86020,17410
86020,18460
" style="stroke:#000000;stroke-width:70;
stroke-linejoin:miter; stroke-linecap:butt;
"/>
<!-- Line -->
<polyline points="92450,32940
92450,31890
" style="stroke:#000000;stroke-width:70;
stroke-linejoin:miter; stroke-linecap:butt;
"/>
<!-- Line -->
<polyline points="92450,17410
92450,18460
" style="stroke:#000000;stroke-width:70;
stroke-linejoin:miter; stroke-linecap:butt;
"/>
<!-- Line -->
<polyline points="98870,32940
98870,31890
" style="stroke:#000000;stroke-width:70;
stroke-linejoin:miter; stroke-linecap:butt;
"/>
<!-- Line -->
<polyline points="98870,17410
98870,18460
" style="stroke:#000000;stroke-width:70;
stroke-linejoin:miter; stroke-linecap:butt;
"/>
<!-- Line -->
<polyline points="66750,17410
66750,32940
98870,32940
98870,17410
66750,17410
" style="stroke:#000000;stroke-width:70;
stroke-linejoin:miter; stroke-linecap:butt;
"/>
<!-- Line -->
<!--  End plot #1  -->
<polyline points="24480,54510
25530,54510
" style="stroke:#000000;stroke-width:70;
stroke-linejoin:miter; stroke-linecap:butt;
"/>
<!-- Line -->
<polyline points="56600,54510
55550,54510
" style="stroke:#000000;stroke-width:70;
stroke-linejoin:miter; stroke-linecap:butt;
"/>
<!-- Line -->
<polyline points="24480,51400
25530,51400
" style="stroke:#000000;stroke-width:70;
stroke-linejoin:miter; stroke-linecap:butt;
"/>
<!-- Line -->
<polyline points="56600,51400
55550,51400
" style="stroke:#000000;stroke-width:70;
stroke-linejoin:miter; stroke-linecap:butt;
"/>
<!-- Line -->
<polyline points="24480,48300
25530,48300
" style="stroke:#000000;stroke-width:70;
stroke-linejoin:miter; stroke-linecap:butt;
"/>
<!-- Line -->
<polyline points="56600,48300
55550,48300
" style="stroke:#000000;stroke-width:70;
stroke-linejoin:miter; stroke-linecap:butt;
"/>
<!-- Line -->
<polyline points="24480,45190
25530,45190
" style="stroke:#000000;stroke-width:70;
stroke-linejoin:miter; stroke-linecap:butt;
"/>
<!-- Line -->
<polyline points="56600,45190
55550,45190
" style="stroke:#000000;stroke-width:70;
stroke-linejoin:miter; stroke-linecap:butt;
"/>
<!-- Line -->
<polyline points="24480,42090
25530,42090
" style="stroke:#000000;stroke-width:70;
stroke-linejoin:miter; stroke-linecap:butt;
"/>
<!-- Line -->
<polyline points="56600,42090
55550,42090
" style="stroke:#000000;stroke-width:70;
stroke-linejoin:miter; stroke-linecap:butt;
"/>
<!-- Line -->
<polyline points="24480,38980
25530,38980
" style="stroke:#000000;stroke-width:70;
stroke-linejoin:miter; stroke-linecap:butt;
"/>
<!-- Line -->
<polyline points="56600,38980
55550,38980
" style="stroke:#000000;stroke-width:70;
stroke-linejoin:miter; stroke-linecap:butt;
"/>
<!-- Line -->
<polyline points="24480,54510
24480,53460
" style="stroke:#000000;stroke-width:70;
stroke-linejoin:miter; stroke-linecap:butt;
"/>
<!-- Line -->
<polyline points="24480,38980
24480,40030
" style="stroke:#000000;stroke-width:70;
stroke-linejoin:miter; stroke-linecap:butt;
"/>
<!-- Line -->
<polyline points="30900,54510
30900,53460
" style="stroke:#000000;stroke-width:70;
stroke-linejoin:miter; stroke-linecap:butt;
"/>
<!-- Line -->
<polyline points="30900,38980
30900,40030
" style="stroke:#000000;stroke-width:70;
stroke-linejoin:miter; stroke-linecap:butt;
"/>
<!-- Line -->
<polyline points="37330,54510
37330,53460
" style="stroke:#000000;stroke-width:70;
stroke-linejoin:miter; stroke-linecap:butt;
"/>
<!-- Line -->
<polyline points="37330,38980
37330,40030
" style="stroke:#000000;stroke-width:70;
stroke-linejoin:miter; stroke-linecap:butt;
"/>
<!-- Line -->
<polyline points="43750,54510
43750,53460
" style="stroke:#000000;stroke-width:70;
stroke-linejoin:miter; stroke-linecap:butt;
"/>
<!-- Line -->
<polyline points="43750,38980
43750,40030
" style="stroke:#000000;stroke-width:70;
stroke-linejoin:miter; stroke-linecap:butt;
"/>
<!-- Line -->
<polyline points="50180,54510
50180,53460
" style="stroke:#000000;stroke-width:70;
stroke-linejoin:miter; stroke-linecap:butt;
"/>
<!-- Line -->
<polyline points="50180,38980
50180,40030
" style="stroke:#000000;stroke-width:70;
stroke-linejoin:miter; stroke-linecap:butt;
"/>
<!-- Line -->
<polyline points="56600,54510
56600,53460
" style="stroke:#000000;stroke-width:70;
stroke-linejoin:miter; stroke-linecap:butt;
"/>
<!-- Line -->
<polyline points="56600,38980
56600,40030
" style="stroke:#000000;stroke-width:70;
stroke-linejoin:miter; stroke-linecap:butt;
"/>
<!-- Line -->
<polyline points="24480,38980
24480,54510
56600,54510
56600,38980
24480,38980
" style="stroke:#000000;stroke-width:70;
stroke-linejoin:miter; stroke-linecap:butt;
"/>
<!-- Line -->
<!--  End plot #1  -->
<polyline points="66750,54510
67800,54510
" style="stroke:#000000;stroke-width:70;
stroke-linejoin:miter; stroke-linecap:butt;
"/>
<!-- Line -->
<polyline points="98870,54510
97820,54510
" style="stroke:#000000;stroke-width:70;
stroke-linejoin:miter; stroke-linecap:butt;
"/>
<!-- Line -->
<polyline points="66750,51900
67800,51900
" style="stroke:#000000;stroke-width:70;
stroke-linejoin:miter; stroke-linecap:butt;
"/>
<!-- Line -->
<polyline points="98870,51900
97820,51900
" style="stroke:#000000;stroke-width:70;
stroke-linejoin:miter; stroke-linecap:butt;
"/>
<!-- Line -->
<polyline points="66750,49290
67800,49290
" style="stroke:#000000;stroke-width:70;
stroke-linejoin:miter; stroke-linecap:butt;
"/>
<!-- Line -->
<polyline points="98870,49290
97820,49290
" style="stroke:#000000;stroke-width:70;
stroke-linejoin:miter; stroke-linecap:butt;
"/>
<!-- Line -->
<polyline points="66750,46680
67800,46680
" style="stroke:#000000;stroke-width:70;
stroke-linejoin:miter; stroke-linecap:butt;
"/>
<!-- Line -->
<polyline points="98870,46680
97820,46680
" style="stroke:#000000;stroke-width:70;
stroke-linejoin:miter; stroke-linecap:butt;
"/>
<!-- Line -->
<polyline points="66750,44070
67800,44070
" style="stroke:#000000;stroke-width:70;
stroke-linejoin:miter; stroke-linecap:butt;
"/>
<!-- Line -->
<polyline points="98870,44070
97820,44070
" style="stroke:#000000;stroke-width:70;
stroke-linejoin:miter; stroke-linecap:butt;
"/>
<!-- Line -->
<polyline points="66750,41460
67800,41460
" style="stroke:#000000;stroke-width:70;
stroke-linejoin:miter; stroke-linecap:butt;
"/>
<!-- Line -->
<polyline points="98870,41460
97820,41460
" style="stroke:#000000;stroke-width:70;
stroke-linejoin:miter; stroke-linecap:butt;
"/>
<!-- Line -->
<polyline points="66750,54510
66750,53460
" style="stroke:#000000;stroke-width:70;
stroke-linejoin:miter; stroke-linecap:butt;
"/>
<!-- Line -->
<polyline points="66750,38980
66750,40030
" style="stroke:#000000;stroke-width:70;
stroke-linejoin:miter; stroke-linecap:butt;
"/>
<!-- Line -->
<polyline points="73170,54510
73170,53460
" style="stroke:#000000;stroke-width:70;
stroke-linejoin:miter; stroke-linecap:butt;
"/>
<!-- Line -->
<polyline points="73170,38980
73170,40030
" style="stroke:#000000;stroke-width:70;
stroke-linejoin:miter; stroke-linecap:butt;
"/>
<!-- Line -->
<polyline points="79600,54510
79600,53460
" style="stroke:#000000;stroke-width:70;
stroke-linejoin:miter; stroke-linecap:butt;
"/>
<!-- Line -->
<polyline points="79600,38980
79600,40030
" style="stroke:#000000;stroke-width:70;
stroke-linejoin:miter; stroke-linecap:butt;
"/>
<!-- Line -->
<polyline points="86020,54510
86020,53460
" style="stroke:#000000;stroke-width:70;
stroke-linejoin:miter; stroke-linecap:butt;
"/>
<!-- Line -->
<polyline points="86020,38980
86020,40030
" style="stroke:#000000;stroke-width:70;
stroke-linejoin:miter; stroke-linecap:butt;
"/>
<!-- Line -->
<polyline points="92450,54510
92450,53460
" style="stroke:#000000;stroke-width:70;
stroke-linejoin:miter; stroke-linecap:butt;
"/>
<!-- Line -->
<polyline points="92450,38980
92450,40030
" style="stroke:#000000;stroke-width:70;
stroke-linejoin:miter; stroke-linecap:butt;
"/>
<!-- Line -->
<polyline points="98870,54510
98870,53460
" style="stroke:#000000;stroke-width:70;
stroke-linejoin:miter; stroke-linecap:butt;
"/>
<!-- Line -->
<polyline points="98870,38980
98870,40030
" style="stroke:#000000;stroke-width:70;
stroke-linejoin:miter; stroke-linecap:butt;
"/>
<!-- Line -->
<polyline points="66750,38980
66750,54510
98870,54510
98870,38980
66750,38980
" style="stroke:#000000;stroke-width:70;
stroke-linejoin:miter; stroke-linecap:butt;
"/>
<!-- Line -->
<!--  End plot #1  -->
<polyline points="24480,76080
25530,76080
" style="stroke:#000000;stroke-width:70;
stroke-linejoin:miter; stroke-linecap:butt;
"/>
<!-- Line -->
<polyline points="56600,76080
55550,76080
" style="stroke:#000000;stroke-width:70;
stroke-linejoin:miter; stroke-linecap:butt;
"/>
<!-- Line -->
<polyline points="24480,72980
25530,72980
" style="stroke:#000000;stroke-width:70;
stroke-linejoin:miter; stroke-linecap:butt;
"/>
<!-- Line -->
<polyline points="56600,72980
55550,72980
" style="stroke:#000000;stroke-width:70;
stroke-linejoin:miter; stroke-linecap:butt;
"/>
<!-- Line -->
<polyline points="24480,69870
25530,69870
" style="stroke:#000000;stroke-width:70;
stroke-linejoin:miter; stroke-linecap:butt;
"/>
<!-- Line -->
<polyline points="56600,69870
55550,69870
" style="stroke:#000000;stroke-width:70;
stroke-linejoin:miter; stroke-linecap:butt;
"/>
<!-- Line -->
<polyline points="24480,66770
25530,66770
" style="stroke:#000000;stroke-width:70;
stroke-linejoin:miter; stroke-linecap:butt;
"/>
<!-- Line -->
<polyline points="56600,66770
55550,66770
" style="stroke:#000000;stroke-width:70;
stroke-linejoin:miter; stroke-linecap:butt;
"/>
<!-- Line -->
<polyline points="24480,63660
25530,63660
" style="stroke:#000000;stroke-width:70;
stroke-linejoin:miter; stroke-linecap:butt;
"/>
<!-- Line -->
<polyline points="56600,63660
55550,63660
" style="stroke:#000000;stroke-width:70;
stroke-linejoin:miter; stroke-linecap:butt;
"/>
<!-- Line -->
<polyline points="24480,60560
25530,60560
" style="stroke:#000000;stroke-width:70;
stroke-linejoin:miter; stroke-linecap:butt;
"/>
<!-- Line -->
<polyline points="56600,60560
55550,60560
" style="stroke:#000000;stroke-width:70;
stroke-linejoin:miter; stroke-linecap:butt;
"/>
<!-- Line -->
<polyline points="24480,76080
24480,75030
" style="stroke:#000000;stroke-width:70;
stroke-linejoin:miter; stroke-linecap:butt;
"/>
<!-- Line -->
<polyline points="24480,60560
24480,61610
" style="stroke:#000000;stroke-width:70;
stroke-linejoin:miter; stroke-linecap:butt;
"/>
<!-- Line -->
<polyline points="30900,76080
30900,75030
" style="stroke:#000000;stroke-width:70;
stroke-linejoin:miter; stroke-linecap:butt;
"/>
<!-- Line -->
<polyline points="30900,60560
30900,61610
" style="stroke:#000000;stroke-width:70;
stroke-linejoin:miter; stroke-linecap:butt;
"/>
<!-- Line -->
<polyline points="37330,76080
37330,75030
" style="stroke:#000000;stroke-width:70;
stroke-linejoin:miter; stroke-linecap:butt;
"/>
<!-- Line -->
<polyline points="37330,60560
37330,61610
" style="stroke:#000000;stroke-width:70;
stroke-linejoin:miter; stroke-linecap:butt;
"/>
<!-- Line -->
<polyline points="43750,76080
43750,75030
" style="stroke:#000000;stroke-width:70;
stroke-linejoin:miter; stroke-linecap:butt;
"/>
<!-- Line -->
<polyline points="43750,60560
43750,61610
" style="stroke:#000000;stroke-width:70;
stroke-linejoin:miter; stroke-linecap:butt;
"/>
<!-- Line -->
<polyline points="50180,76080
50180,75030
" style="stroke:#000000;stroke-width:70;
stroke-linejoin:miter; stroke-linecap:butt;
"/>
<!-- Line -->
<polyline points="50180,60560
50180,61610
" style="stroke:#000000;stroke-width:70;
stroke-linejoin:miter; stroke-linecap:butt;
"/>
<!-- Line -->
<polyline points="56600,76080
56600,75030
" style="stroke:#000000;stroke-width:70;
stroke-linejoin:miter; stroke-linecap:butt;
"/>
<!-- Line -->
<polyline points="56600,60560
56600,61610
" style="stroke:#000000;stroke-width:70;
stroke-linejoin:miter; stroke-linecap:butt;
"/>
<!-- Line -->
<polyline points="24480,60560
24480,76080
56600,76080
56600,60560
24480,60560
" style="stroke:#000000;stroke-width:70;
stroke-linejoin:miter; stroke-linecap:butt;
"/>
<!-- Line -->
<!--  End plot #1  -->
<polyline points="66750,76080
67800,76080
" style="stroke:#000000;stroke-width:70;
stroke-linejoin:miter; stroke-linecap:butt;
"/>
<!-- Line -->
<polyline points="98870,76080
97820,76080
" style="stroke:#000000;stroke-width:70;
stroke-linejoin:miter; stroke-linecap:butt;
"/>
<!-- Line -->
<polyline points="66750,73470
67800,73470
" style="stroke:#000000;stroke-width:70;
stroke-linejoin:miter; stroke-linecap:butt;
"/>
<!-- Line -->
<polyline points="98870,73470
97820,73470
" style="stroke:#000000;stroke-width:70;
stroke-linejoin:miter; stroke-linecap:butt;
"/>
<!-- Line -->
<polyline points="66750,70860
67800,70860
" style="stroke:#000000;stroke-width:70;
stroke-linejoin:miter; stroke-linecap:butt;
"/>
<!-- Line -->
<polyline points="98870,70860
97820,70860
" style="stroke:#000000;stroke-width:70;
stroke-linejoin:miter; stroke-linecap:butt;
"/>
<!-- Line -->
<polyline points="66750,68250
67800,68250
" style="stroke:#000000;stroke-width:70;
stroke-linejoin:miter; stroke-linecap:butt;
"/>
<!-- Line -->
<polyline points="98870,68250
97820,68250
" style="stroke:#000000;stroke-width:70;
stroke-linejoin:miter; stroke-linecap:butt;
"/>
<!-- Line -->
<polyline points="66750,65650
67800,65650
" style="stroke:#000000;stroke-width:70;
stroke-linejoin:miter; stroke-linecap:butt;
"/>
<!-- Line -->
<polyline points="98870,65650
97820,65650
" style="stroke:#000000;stroke-width:70;
stroke-linejoin:miter; stroke-linecap:butt;
"/>
<!-- Line -->
<polyline points="66750,63040
67800,63040
" style="stroke:#000000;stroke-width:70;
stroke-linejoin:miter; stroke-linecap:butt;
"/>
<!-- Line -->
<polyline points="98870,63040
97820,63040
" style="stroke:#000000;stroke-width:70;
stroke-linejoin:miter; stroke-linecap:butt;
"/>
<!-- Line -->
<polyline points="66750,76080
66750,75030
" style="stroke:#000000;stroke-width:70;
stroke-linejoin:miter; stroke-linecap:butt;
"/>
<!-- Line -->
<polyline points="66750,60560
66750,61610
" style="stroke:#000000;stroke-width:70;
stroke-linejoin:miter; stroke-linecap:butt;
"/>
<!-- Line -->
<polyline points="73170,76080
73170,75030
" style="stroke:#000000;stroke-width:70;
stroke-linejoin:miter; stroke-linecap:butt;
"/>
<!-- Line -->
<polyline points="73170,60560
73170,61610
" style="stroke:#000000;stroke-width:70;
stroke-linejoin:miter; stroke-linecap:butt;
"/>
<!-- Line -->
<polyline points="79600,76080
79600,75030
" style="stroke:#000000;stroke-width:70;
stroke-linejoin:miter; stroke-linecap:butt;
"/>
<!-- Line -->
<polyline points="79600,60560
79600,61610
" style="stroke:#000000;stroke-width:70;
stroke-linejoin:miter; stroke-linecap:butt;
"/>
<!-- Line -->
<polyline points="86020,76080
86020,75030
" style="stroke:#000000;stroke-width:70;
stroke-linejoin:miter; stroke-linecap:butt;
"/>
<!-- Line -->
<polyline points="86020,60560
86020,61610
" style="stroke:#000000;stroke-width:70;
stroke-linejoin:miter; stroke-linecap:butt;
"/>
<!-- Line -->
<polyline points="92450,76080
92450,75030
" style="stroke:#000000;stroke-width:70;
stroke-linejoin:miter; stroke-linecap:butt;
"/>
<!-- Line -->
<polyline points="92450,60560
92450,61610
" style="stroke:#000000;stroke-width:70;
stroke-linejoin:miter; stroke-linecap:butt;
"/>
<!-- Line -->
<polyline points="98870,76080
98870,75030
" style="stroke:#000000;stroke-width:70;
stroke-linejoin:miter; stroke-linecap:butt;
"/>
<!-- Line -->
<polyline points="98870,60560
98870,61610
" style="stroke:#000000;stroke-width:70;
stroke-linejoin:miter; stroke-linecap:butt;
"/>
<!-- Line -->
<polyline points="66750,60560
66750,76080
98870,76080
98870,60560
66750,60560
" style="stroke:#000000;stroke-width:70;
stroke-linejoin:miter; stroke-linecap:butt;
"/>
<!-- Text -->
<!--  Begin plot #1  -->
<text xml:space="preserve" x="50600" y="19400" fill="#000000"  font-family="Times" font-style="normal" font-weight="normal" font-size="1200" text-anchor="end">RMSE</text>
<!-- Text -->
<!--  Begin plot #1  -->
<text xml:space="preserve" x="92870" y="19400" fill="#000000"  font-family="Times" font-style="normal" font-weight="normal" font-size="1200" text-anchor="end">penalty</text>
<!-- Text -->
<!--  Begin plot #1  -->
<text xml:space="preserve" x="50600" y="40970" fill="#000000"  font-family="Times" font-style="normal" font-weight="normal" font-size="1200" text-anchor="end">nForward</text>
<!-- Text -->
<!--  Begin plot #1  -->
<text xml:space="preserve" x="92870" y="40970" fill="#000000"  font-family="Times" font-style="normal" font-weight="normal" font-size="1200" text-anchor="end">de/dw influence [%]</text>
<!-- Text -->
<!--  Begin plot #1  -->
<text xml:space="preserve" x="50600" y="62550" fill="#000000"  font-family="Times" font-style="normal" font-weight="normal" font-size="1200" text-anchor="end">nBackward</text>
<!-- Text -->
<!--  Begin plot #1  -->
<text xml:space="preserve" x="92870" y="62550" fill="#000000"  font-family="Times" font-style="normal" font-weight="normal" font-size="1200" text-anchor="end">dp/dw influence [%]</text>
<!-- Text -->
<text xml:space="preserve" x="23730" y="33190" fill="#000000"  font-family="Times" font-style="normal" font-weight="normal" font-size="1200" text-anchor="end">5.5</text>
<!-- Text -->
<text xml:space="preserve" x="23730" y="31340" fill="#000000"  font-family="Times" font-style="normal" font-weight="normal" font-size="1200" text-anchor="end">6</text>
<!-- Text -->
<text xml:space="preserve" x="23730" y="29490" fill="#000000"  font-family="Times" font-style="normal" font-weight="normal" font-size="1200" text-anchor="end">6.5</text>
<!-- Text -->
<text xml:space="preserve" x="23730" y="27640" fill="#000000"  font-family="Times" font-style="normal" font-weight="normal" font-size="1200" text-anchor="end">7</text>
<!-- Text -->
<text xml:space="preserve" x="23730" y="25790" fill="#000000"  font-family="Times" font-style="normal" font-weight="normal" font-size="1200" text-anchor="end">7.5</text>
<!-- Text -->
<text xml:space="preserve" x="23730" y="23950" fill="#000000"  font-family="Times" font-style="normal" font-weight="normal" font-size="1200" text-anchor="end">8</text>
<!-- Text -->
<text xml:space="preserve" x="23730" y="22100" fill="#000000"  font-family="Times" font-style="normal" font-weight="normal" font-size="1200" text-anchor="end">8.5</text>
<!-- Text -->
<text xml:space="preserve" x="23730" y="20250" fill="#000000"  font-family="Times" font-style="normal" font-weight="normal" font-size="1200" text-anchor="end">9</text>
<!-- Text -->
<text xml:space="preserve" x="23730" y="18400" fill="#000000"  font-family="Times" font-style="normal" font-weight="normal" font-size="1200" text-anchor="end">9.5</text>
<!-- Text -->
<text xml:space="preserve" x="24480" y="34810" fill="#000000"  font-family="Times" font-style="normal" font-weight="normal" font-size="1200" text-anchor="middle">0</text>
<!-- Text -->
<text xml:space="preserve" x="30900" y="34810" fill="#000000"  font-family="Times" font-style="normal" font-weight="normal" font-size="1200" text-anchor="middle">10</text>
<!-- Text -->
<text xml:space="preserve" x="37330" y="34810" fill="#000000"  font-family="Times" font-style="normal" font-weight="normal" font-size="1200" text-anchor="middle">20</text>
<!-- Text -->
<text xml:space="preserve" x="43750" y="34810" fill="#000000"  font-family="Times" font-style="normal" font-weight="normal" font-size="1200" text-anchor="middle">30</text>
<!-- Text -->
<text xml:space="preserve" x="50180" y="34810" fill="#000000"  font-family="Times" font-style="normal" font-weight="normal" font-size="1200" text-anchor="middle">40</text>
<!-- Text -->
<text xml:space="preserve" x="56600" y="34810" fill="#000000"  font-family="Times" font-style="normal" font-weight="normal" font-size="1200" text-anchor="middle">50</text>
<!-- Text -->
<text xml:space="preserve" x="66000" y="33560" fill="#000000"  font-family="Times" font-style="normal" font-weight="normal" font-size="1200" text-anchor="end">-0.2</text>
<!-- Text -->
<text xml:space="preserve" x="66000" y="31340" fill="#000000"  font-family="Times" font-style="normal" font-weight="normal" font-size="1200" text-anchor="end">0</text>
<!-- Text -->
<text xml:space="preserve" x="66000" y="29120" fill="#000000"  font-family="Times" font-style="normal" font-weight="normal" font-size="1200" text-anchor="end">0.2</text>
<!-- Text -->
<text xml:space="preserve" x="66000" y="26900" fill="#000000"  font-family="Times" font-style="normal" font-weight="normal" font-size="1200" text-anchor="end">0.4</text>
<!-- Text -->
<text xml:space="preserve" x="66000" y="24690" fill="#000000"  font-family="Times" font-style="normal" font-weight="normal" font-size="1200" text-anchor="end">0.6</text>
<!-- Text -->
<text xml:space="preserve" x="66000" y="22470" fill="#000000"  font-family="Times" font-style="normal" font-weight="normal" font-size="1200" text-anchor="end">0.8</text>
<!-- Text -->
<text xml:space="preserve" x="66000" y="20250" fill="#000000"  font-family="Times" font-style="normal" font-weight="normal" font-size="1200" text-anchor="end">1</text>
<!-- Text -->
<text xml:space="preserve" x="66000" y="18030" fill="#000000"  font-family="Times" font-style="normal" font-weight="normal" font-size="1200" text-anchor="end">1.2</text>
<!-- Text -->
<text xml:space="preserve" x="66750" y="34810" fill="#000000"  font-family="Times" font-style="normal" font-weight="normal" font-size="1200" text-anchor="middle">0</text>
<!-- Text -->
<text xml:space="preserve" x="73170" y="34810" fill="#000000"  font-family="Times" font-style="normal" font-weight="normal" font-size="1200" text-anchor="middle">10</text>
<!-- Text -->
<text xml:space="preserve" x="79600" y="34810" fill="#000000"  font-family="Times" font-style="normal" font-weight="normal" font-size="1200" text-anchor="middle">20</text>
<!-- Text -->
<text xml:space="preserve" x="86020" y="34810" fill="#000000"  font-family="Times" font-style="normal" font-weight="normal" font-size="1200" text-anchor="middle">30</text>
<!-- Text -->
<text xml:space="preserve" x="92450" y="34810" fill="#000000"  font-family="Times" font-style="normal" font-weight="normal" font-size="1200" text-anchor="middle">40</text>
<!-- Text -->
<text xml:space="preserve" x="98870" y="34810" fill="#000000"  font-family="Times" font-style="normal" font-weight="normal" font-size="1200" text-anchor="middle">50</text>
<!-- Text -->
<text xml:space="preserve" x="23730" y="55130" fill="#000000"  font-family="Times" font-style="normal" font-weight="normal" font-size="1200" text-anchor="end">0</text>
<!-- Text -->
<text xml:space="preserve" x="23730" y="52020" fill="#000000"  font-family="Times" font-style="normal" font-weight="normal" font-size="1200" text-anchor="end">50</text>
<!-- Text -->
<text xml:space="preserve" x="23730" y="48920" fill="#000000"  font-family="Times" font-style="normal" font-weight="normal" font-size="1200" text-anchor="end">100</text>
<!-- Text -->
<text xml:space="preserve" x="23730" y="45810" fill="#000000"  font-family="Times" font-style="normal" font-weight="normal" font-size="1200" text-anchor="end">150</text>
<!-- Text -->
<text xml:space="preserve" x="23730" y="42710" fill="#000000"  font-family="Times" font-style="normal" font-weight="normal" font-size="1200" text-anchor="end">200</text>
<!-- Text -->
<text xml:space="preserve" x="23730" y="39600" fill="#000000"  font-family="Times" font-style="normal" font-weight="normal" font-size="1200" text-anchor="end">250</text>
<!-- Text -->
<text xml:space="preserve" x="24480" y="56380" fill="#000000"  font-family="Times" font-style="normal" font-weight="normal" font-size="1200" text-anchor="middle">0</text>
<!-- Text -->
<text xml:space="preserve" x="30900" y="56380" fill="#000000"  font-family="Times" font-style="normal" font-weight="normal" font-size="1200" text-anchor="middle">10</text>
<!-- Text -->
<text xml:space="preserve" x="37330" y="56380" fill="#000000"  font-family="Times" font-style="normal" font-weight="normal" font-size="1200" text-anchor="middle">20</text>
<!-- Text -->
<text xml:space="preserve" x="43750" y="56380" fill="#000000"  font-family="Times" font-style="normal" font-weight="normal" font-size="1200" text-anchor="middle">30</text>
<!-- Text -->
<text xml:space="preserve" x="50180" y="56380" fill="#000000"  font-family="Times" font-style="normal" font-weight="normal" font-size="1200" text-anchor="middle">40</text>
<!-- Text -->
<text xml:space="preserve" x="56600" y="56380" fill="#000000"  font-family="Times" font-style="normal" font-weight="normal" font-size="1200" text-anchor="middle">50</text>
<!-- Text -->
<text xml:space="preserve" x="66000" y="55130" fill="#000000"  font-family="Times" font-style="normal" font-weight="normal" font-size="1200" text-anchor="end">0</text>
<!-- Text -->
<text xml:space="preserve" x="66000" y="52520" fill="#000000"  font-family="Times" font-style="normal" font-weight="normal" font-size="1200" text-anchor="end">20</text>
<!-- Text -->
<text xml:space="preserve" x="66000" y="49910" fill="#000000"  font-family="Times" font-style="normal" font-weight="normal" font-size="1200" text-anchor="end">40</text>
<!-- Text -->
<text xml:space="preserve" x="66000" y="47300" fill="#000000"  font-family="Times" font-style="normal" font-weight="normal" font-size="1200" text-anchor="end">60</text>
<!-- Text -->
<text xml:space="preserve" x="66000" y="44690" fill="#000000"  font-family="Times" font-style="normal" font-weight="normal" font-size="1200" text-anchor="end">80</text>
<!-- Text -->
<text xml:space="preserve" x="66000" y="42080" fill="#000000"  font-family="Times" font-style="normal" font-weight="normal" font-size="1200" text-anchor="end">100</text>
<!-- Text -->
<text xml:space="preserve" x="66750" y="56380" fill="#000000"  font-family="Times" font-style="normal" font-weight="normal" font-size="1200" text-anchor="middle">0</text>
<!-- Text -->
<text xml:space="preserve" x="73170" y="56380" fill="#000000"  font-family="Times" font-style="normal" font-weight="normal" font-size="1200" text-anchor="middle">10</text>
<!-- Text -->
<text xml:space="preserve" x="79600" y="56380" fill="#000000"  font-family="Times" font-style="normal" font-weight="normal" font-size="1200" text-anchor="middle">20</text>
<!-- Text -->
<text xml:space="preserve" x="86020" y="56380" fill="#000000"  font-family="Times" font-style="normal" font-weight="normal" font-size="1200" text-anchor="middle">30</text>
<!-- Text -->
<text xml:space="preserve" x="92450" y="56380" fill="#000000"  font-family="Times" font-style="normal" font-weight="normal" font-size="1200" text-anchor="middle">40</text>
<!-- Text -->
<text xml:space="preserve" x="98870" y="56380" fill="#000000"  font-family="Times" font-style="normal" font-weight="normal" font-size="1200" text-anchor="middle">50</text>
<!-- Text -->
<text xml:space="preserve" x="23730" y="76700" fill="#000000"  font-family="Times" font-style="normal" font-weight="normal" font-size="1200" text-anchor="end">0</text>
<!-- Text -->
<text xml:space="preserve" x="23730" y="73600" fill="#000000"  font-family="Times" font-style="normal" font-weight="normal" font-size="1200" text-anchor="end">50</text>
<!-- Text -->
<text xml:space="preserve" x="23730" y="70490" fill="#000000"  font-family="Times" font-style="normal" font-weight="normal" font-size="1200" text-anchor="end">100</text>
<!-- Text -->
<text xml:space="preserve" x="23730" y="67390" fill="#000000"  font-family="Times" font-style="normal" font-weight="normal" font-size="1200" text-anchor="end">150</text>
<!-- Text -->
<text xml:space="preserve" x="23730" y="64280" fill="#000000"  font-family="Times" font-style="normal" font-weight="normal" font-size="1200" text-anchor="end">200</text>
<!-- Text -->
<text xml:space="preserve" x="23730" y="61180" fill="#000000"  font-family="Times" font-style="normal" font-weight="normal" font-size="1200" text-anchor="end">250</text>
<!-- Text -->
<text xml:space="preserve" x="24480" y="77950" fill="#000000"  font-family="Times" font-style="normal" font-weight="normal" font-size="1200" text-anchor="middle">0</text>
<!-- Text -->
<text xml:space="preserve" x="30900" y="77950" fill="#000000"  font-family="Times" font-style="normal" font-weight="normal" font-size="1200" text-anchor="middle">10</text>
<!-- Text -->
<text xml:space="preserve" x="37330" y="77950" fill="#000000"  font-family="Times" font-style="normal" font-weight="normal" font-size="1200" text-anchor="middle">20</text>
<!-- Text -->
<text xml:space="preserve" x="43750" y="77950" fill="#000000"  font-family="Times" font-style="normal" font-weight="normal" font-size="1200" text-anchor="middle">30</text>
<!-- Text -->
<text xml:space="preserve" x="50180" y="77950" fill="#000000"  font-family="Times" font-style="normal" font-weight="normal" font-size="1200" text-anchor="middle">40</text>
<!-- Text -->
<text xml:space="preserve" x="56600" y="77950" fill="#000000"  font-family="Times" font-style="normal" font-weight="normal" font-size="1200" text-anchor="middle">50</text>
<!-- Text -->
<text xml:space="preserve" x="66000" y="76700" fill="#000000"  font-family="Times" font-style="normal" font-weight="normal" font-size="1200" text-anchor="end">0</text>
<!-- Text -->
<text xml:space="preserve" x="66000" y="74090" fill="#000000"  font-family="Times" font-style="normal" font-weight="normal" font-size="1200" text-anchor="end">20</text>
<!-- Text -->
<text xml:space="preserve" x="66000" y="71480" fill="#000000"  font-family="Times" font-style="normal" font-weight="normal" font-size="1200" text-anchor="end">40</text>
<!-- Text -->
<text xml:space="preserve" x="66000" y="68870" fill="#000000"  font-family="Times" font-style="normal" font-weight="normal" font-size="1200" text-anchor="end">60</text>
<!-- Text -->
<text xml:space="preserve" x="66000" y="66270" fill="#000000"  font-family="Times" font-style="normal" font-weight="normal" font-size="1200" text-anchor="end">80</text>
<!-- Text -->
<text xml:space="preserve" x="66000" y="63660" fill="#000000"  font-family="Times" font-style="normal" font-weight="normal" font-size="1200" text-anchor="end">100</text>
<!-- Text -->
<text xml:space="preserve" x="66750" y="77950" fill="#000000"  font-family="Times" font-style="normal" font-weight="normal" font-size="1200" text-anchor="middle">0</text>
<!-- Text -->
<text xml:space="preserve" x="73170" y="77950" fill="#000000"  font-family="Times" font-style="normal" font-weight="normal" font-size="1200" text-anchor="middle">10</text>
<!-- Text -->
<text xml:space="preserve" x="79600" y="77950" fill="#000000"  font-family="Times" font-style="normal" font-weight="normal" font-size="1200" text-anchor="middle">20</text>
<!-- Text -->
<text xml:space="preserve" x="86020" y="77950" fill="#000000"  font-family="Times" font-style="normal" font-weight="normal" font-size="1200" text-anchor="middle">30</text>
<!-- Text -->
<text xml:space="preserve" x="92450" y="77950" fill="#000000"  font-family="Times" font-style="normal" font-weight="normal" font-size="1200" text-anchor="middle">40</text>
<!-- Text -->
<text xml:space="preserve" x="98870" y="77950" fill="#000000"  font-family="Times" font-style="normal" font-weight="normal" font-size="1200" text-anchor="middle">50</text>
</g>
</svg>
